<svg width="678" height="51" viewBox="0 0 678 51" fill="none" xmlns="http://www.w3.org/2000/svg">
<path d="M20.734 41.09L15.916 50H0.142L26.41 0.895999H47.398L73.732 50H57.892L53.074 41.09H20.734ZM36.904 10.862L26.146 30.926H47.662L36.904 10.862ZM98.2737 39.836H139.722V50H83.3577V0.895999H98.2737V39.836ZM136.013 10.994V0.895999H197.393V10.994H174.161V50H159.179V10.994H136.013ZM264.103 50H207.739V0.895999H264.103V11.06H222.655V20.366H260.935V30.53H240.475H222.655V39.836H264.103V50ZM330.118 34.226C330.052 34.226 329.986 34.292 329.854 34.292L340.414 50L324.64 50.066L314.938 35.612H291.904V50.066H276.988V0.895999H286.03H319.228H320.35C326.158 0.829996 330.646 1.886 333.682 4.13C333.814 4.196 333.946 4.328 334.078 4.46C334.342 4.658 334.606 4.856 334.804 5.054C335.002 5.252 335.2 5.45 335.398 5.648C335.53 5.846 335.662 5.978 335.794 6.176C335.992 6.44 336.19 6.704 336.388 6.968C336.454 7.1 336.52 7.232 336.652 7.364C336.784 7.694 336.982 8.024 337.18 8.354C337.18 8.486 337.246 8.552 337.312 8.684C337.444 9.08 337.576 9.476 337.708 9.872C337.774 9.938 337.774 10.004 337.774 10.07C337.906 10.532 338.038 10.994 338.104 11.456C338.104 11.522 338.104 11.588 338.104 11.654C338.236 12.116 338.236 12.644 338.302 13.172C338.302 13.238 338.302 13.238 338.302 13.238L338.368 22.214C338.368 22.742 338.302 23.204 338.302 23.6C338.236 23.732 338.236 23.864 338.236 23.996C338.17 24.392 338.104 24.854 338.038 25.25C338.038 25.316 338.038 25.448 337.972 25.514C337.708 26.834 337.246 28.022 336.652 29.078C336.652 29.144 336.586 29.21 336.52 29.276C336.322 29.606 336.124 29.87 335.926 30.2C335.86 30.266 335.794 30.332 335.728 30.464C334.672 31.718 333.286 32.774 331.636 33.566C331.504 33.632 331.438 33.698 331.306 33.698C330.91 33.896 330.514 34.094 330.118 34.226ZM315.862 10.994H291.904V25.448H315.862H317.974C318.238 25.448 318.502 25.448 318.766 25.448C318.766 25.448 318.832 25.448 318.898 25.448C319.162 25.382 319.36 25.382 319.624 25.382L319.69 25.316C320.416 25.25 321.076 25.118 321.67 24.92C321.67 24.92 321.736 24.92 321.736 24.854C321.934 24.788 322.132 24.722 322.264 24.656C322.33 24.656 322.33 24.656 322.396 24.59C323.122 24.26 323.65 23.864 324.112 23.336C324.112 23.27 324.178 23.27 324.178 23.204C324.244 23.072 324.376 22.94 324.442 22.808L324.508 22.742C324.772 22.28 324.97 21.818 325.036 21.29C325.036 21.224 325.102 21.224 325.102 21.158C325.102 20.96 325.102 20.828 325.168 20.63C325.168 20.564 325.168 20.498 325.168 20.498C325.168 20.3 325.168 20.102 325.168 19.904V16.142C325.168 15.944 325.168 15.68 325.102 15.482C325.102 15.482 325.102 15.482 325.102 15.416C325.036 15.218 325.036 15.02 324.97 14.822C324.97 14.822 324.97 14.822 324.904 14.756C324.904 14.558 324.838 14.426 324.772 14.228C324.706 14.228 324.706 14.162 324.706 14.162C324.64 13.964 324.574 13.832 324.508 13.7C324.442 13.634 324.442 13.634 324.376 13.568C324.31 13.436 324.244 13.304 324.112 13.238C324.112 13.172 324.046 13.106 323.98 13.04C323.848 12.908 323.782 12.842 323.716 12.776C323.65 12.644 323.518 12.578 323.452 12.512C323.386 12.446 323.32 12.38 323.254 12.38C322 11.456 320.152 10.994 317.71 11.06H315.862V10.994ZM411.065 39.836H452.513V50H396.149V0.895999H411.065V39.836ZM478.789 41.09L473.971 50H458.197L484.465 0.895999H505.453L531.787 50H515.947L511.129 41.09H478.789ZM494.959 10.862L484.201 30.926H505.717L494.959 10.862ZM582.069 50H541.413V0.895999H582.069H587.745C597.579 0.631998 602.529 6.11 602.529 14.426C602.529 20.168 600.813 23.27 597.843 24.92C602.331 26.174 605.103 29.276 605.103 36.47C605.103 44.786 600.153 50.264 590.319 50H582.069ZM556.329 39.836H585.435C588.537 39.968 590.187 38.318 590.121 35.216C590.187 32.114 588.537 30.464 585.435 30.53H556.329V39.836ZM582.861 11.06H556.329V20.366H582.861C585.963 20.432 587.613 18.782 587.547 15.746C587.613 12.644 585.963 10.994 582.861 11.06ZM677.489 32.642V33.5C677.489 33.566 677.489 33.632 677.489 33.764V37.724C677.423 38.252 677.423 38.78 677.291 39.242C677.291 39.308 677.291 39.374 677.291 39.44C677.225 39.902 677.093 40.364 676.961 40.826C676.961 40.892 676.961 40.958 676.895 41.024C676.763 41.42 676.631 41.882 676.499 42.212C676.433 42.344 676.367 42.41 676.301 42.542C676.169 42.872 675.971 43.202 675.839 43.532C675.707 43.664 675.641 43.796 675.575 43.928C675.377 44.192 675.179 44.522 674.981 44.72C674.849 44.918 674.717 45.05 674.585 45.248C674.387 45.446 674.189 45.644 673.991 45.842C673.793 46.04 673.529 46.238 673.265 46.436C673.133 46.568 673.001 46.7 672.869 46.766C669.833 49.01 665.345 50.066 659.537 50H634.193C628.319 50.066 623.831 49.01 620.795 46.766C620.663 46.7 620.531 46.568 620.399 46.436C620.135 46.238 619.871 46.04 619.673 45.842C619.475 45.644 619.277 45.446 619.079 45.248C618.947 45.05 618.815 44.918 618.683 44.72C618.485 44.522 618.287 44.192 618.089 43.928C618.023 43.796 617.957 43.664 617.891 43.532C617.693 43.202 617.495 42.872 617.363 42.542C617.297 42.41 617.231 42.344 617.165 42.212C617.033 41.882 616.901 41.42 616.769 41.024C616.769 40.958 616.703 40.892 616.703 40.826C616.571 40.364 616.439 39.902 616.373 39.44C616.373 39.374 616.373 39.308 616.373 39.242C616.241 38.78 616.241 38.252 616.175 37.724C616.175 37.658 616.175 37.658 616.175 37.658V33.368H629.309V34.754C629.309 34.952 629.375 35.216 629.375 35.414V35.48C629.441 35.678 629.441 35.876 629.507 36.074L629.573 36.14C629.573 36.338 629.639 36.47 629.705 36.668C629.771 36.668 629.771 36.734 629.771 36.734C629.837 36.932 629.903 37.064 630.035 37.196C630.035 37.262 630.101 37.262 630.101 37.328C630.167 37.46 630.233 37.592 630.365 37.658C630.431 37.724 630.497 37.79 630.497 37.856C630.629 37.988 630.695 38.054 630.761 38.12C630.827 38.252 630.959 38.318 631.091 38.384C631.091 38.45 631.157 38.516 631.223 38.516C632.477 39.44 634.325 39.902 636.767 39.902C636.767 39.902 638.615 39.836 638.615 39.902C638.615 39.902 655.049 39.902 655.049 39.836C655.049 39.836 656.897 39.902 656.897 39.836C658.943 39.902 661.253 39.638 662.837 38.186C663.695 37.394 664.289 36.272 664.223 35.15C664.223 35.018 664.223 34.886 664.223 34.754C664.025 33.5 663.167 32.378 662.111 31.652C660.659 30.728 658.877 30.53 657.161 30.53H655.049H635.249H633.533C632.873 30.53 632.279 30.53 631.685 30.464C631.553 30.464 631.421 30.464 631.289 30.464C630.695 30.398 630.101 30.398 629.573 30.332C629.507 30.332 629.441 30.266 629.309 30.266C627.593 30.068 626.009 29.738 624.623 29.21C624.557 29.21 624.491 29.21 624.359 29.144C623.963 29.012 623.567 28.814 623.171 28.682C623.039 28.616 622.973 28.55 622.841 28.55C621.191 27.692 619.805 26.636 618.749 25.382C618.683 25.316 618.617 25.25 618.551 25.118C618.353 24.854 618.155 24.524 617.957 24.194C617.891 24.128 617.891 24.062 617.825 23.996C617.231 22.94 616.769 21.752 616.505 20.432C616.439 20.366 616.439 20.3 616.439 20.168C616.373 19.772 616.307 19.376 616.241 18.914C616.241 18.782 616.241 18.716 616.241 18.584C616.175 18.452 616.175 18.386 616.175 18.254V17.528C616.175 17.396 616.175 17.33 616.175 17.198V13.172C616.241 12.644 616.307 12.182 616.373 11.654C616.373 11.588 616.373 11.522 616.373 11.522C616.439 10.994 616.571 10.532 616.703 10.136C616.703 10.004 616.769 9.938 616.769 9.872C616.901 9.476 617.033 9.08 617.231 8.684C617.231 8.552 617.297 8.486 617.363 8.354C617.495 8.024 617.693 7.694 617.891 7.364C617.957 7.232 618.023 7.1 618.089 6.968C618.287 6.704 618.485 6.44 618.683 6.176C618.815 5.978 618.947 5.846 619.145 5.714C619.277 5.516 619.475 5.252 619.673 5.12C619.871 4.856 620.135 4.658 620.399 4.46C620.531 4.328 620.663 4.262 620.795 4.13C623.831 1.952 628.319 0.829996 634.193 0.895999H659.537C665.345 0.829996 669.833 1.952 672.869 4.13C673.001 4.262 673.133 4.328 673.265 4.46C673.529 4.658 673.793 4.856 673.991 5.12C674.189 5.252 674.387 5.516 674.585 5.714C674.717 5.846 674.849 5.978 674.981 6.176C675.179 6.44 675.377 6.704 675.575 6.968C675.641 7.1 675.707 7.232 675.839 7.364C676.037 7.694 676.169 8.024 676.367 8.354C676.367 8.486 676.433 8.552 676.499 8.684C676.631 9.08 676.763 9.476 676.895 9.872C676.961 9.938 676.961 10.004 676.961 10.136C677.093 10.532 677.225 10.994 677.291 11.522C677.291 11.522 677.291 11.588 677.291 11.654C677.423 12.182 677.423 12.71 677.489 13.238V17.594H664.355C664.355 17.594 664.355 16.208 664.355 16.142C664.355 15.944 664.355 15.746 664.289 15.548C664.289 15.482 664.289 15.482 664.289 15.416C664.223 15.218 664.223 15.086 664.157 14.888C664.157 14.822 664.157 14.822 664.091 14.756C664.091 14.624 664.025 14.426 663.959 14.294C663.893 14.228 663.893 14.162 663.893 14.162C663.827 14.03 663.761 13.898 663.695 13.7C663.629 13.7 663.629 13.634 663.563 13.568C663.497 13.436 663.431 13.37 663.299 13.238C663.299 13.172 663.233 13.106 663.167 13.04C663.101 12.974 662.969 12.842 662.903 12.776C662.837 12.71 662.705 12.578 662.639 12.512C662.573 12.512 662.507 12.446 662.441 12.38C661.187 11.456 659.339 10.994 656.897 11.06H655.049H638.615H636.767C634.391 10.994 631.355 11.324 630.035 13.634C629.375 14.756 629.309 16.142 629.837 17.33C630.695 19.376 632.741 20.036 634.787 20.3H634.853C635.117 20.3 635.315 20.366 635.579 20.366C635.645 20.366 635.711 20.366 635.777 20.366C635.975 20.366 636.239 20.366 636.503 20.366H638.615H655.049H660.131C660.791 20.366 661.385 20.432 661.979 20.432C662.111 20.432 662.243 20.432 662.375 20.498C662.969 20.498 663.563 20.564 664.091 20.63C664.157 20.63 664.223 20.63 664.355 20.63C666.071 20.828 667.655 21.224 669.041 21.686C669.107 21.686 669.173 21.752 669.305 21.752C669.701 21.884 670.097 22.082 670.493 22.28C670.625 22.28 670.691 22.346 670.823 22.412C672.473 23.204 673.859 24.26 674.915 25.514C674.981 25.646 675.047 25.712 675.113 25.778C675.311 26.108 675.509 26.372 675.707 26.702C675.773 26.768 675.773 26.834 675.839 26.9C676.433 27.956 676.895 29.144 677.159 30.464C677.225 30.53 677.225 30.662 677.225 30.728C677.291 31.124 677.357 31.586 677.423 31.982C677.423 32.114 677.423 32.246 677.423 32.378C677.489 32.444 677.489 32.576 677.489 32.642Z" fill="#FFF6D2" fill-opacity="0.6"/>
</svg>
