<svg width="678" height="82" viewBox="0 0 678 82" fill="none" xmlns="http://www.w3.org/2000/svg">
<path d="M58.64 20.24H71.96V80.12H58.64V50.24C58.64 39.2 48.68 30.2 36.2 30.2C23.84 30.2 13.76 39.2 13.76 50.24C13.76 61.16 20.48 70.16 28.76 70.16C37.04 70.16 43.76 62.72 43.76 53.48H56.96C56.96 69.08 44.36 81.8 28.76 81.8C13.16 81.8 0.56 67.64 0.56 50.24C0.56 32.72 16.52 18.56 36.2 18.56C41.84 18.56 47.24 19.76 51.92 21.8C55.04 23.12 57.44 25.64 58.88 28.64L61.16 33.92L62.84 33.2L59.84 26.48C59.12 24.8 58.64 23 58.64 21.08V20.24ZM111.749 70.16H120.029V81.8H111.749C100.709 81.8 91.8294 74.36 91.8294 65.12V0.319996H105.029V65.12C105.029 67.88 108.029 70.16 111.749 70.16ZM156.478 70.16H164.878V81.8H156.478C145.558 81.8 136.558 74.36 136.558 65.12V30.2H133.318V20.24H136.558V0.319996H149.878V20.24H163.198V30.2H152.998C151.798 30.2 150.718 29.72 149.878 29L147.238 26.24L145.918 27.56L148.558 30.2C149.398 31.04 149.878 32.12 149.878 33.32V65.12C149.878 67.88 152.878 70.16 156.478 70.16ZM247.645 50.24C247.645 51.92 247.525 53.6 247.165 55.16H190.165C192.685 63.8 201.445 70.16 211.885 70.16C218.605 70.16 224.485 67.52 228.685 63.44H244.285C238.645 74.24 226.285 81.8 211.885 81.8C192.205 81.8 176.245 67.64 176.245 50.24C176.245 32.72 192.205 18.56 211.885 18.56C229.765 18.56 244.525 30.08 247.165 45.2C247.525 46.88 247.645 48.44 247.645 50.24ZM194.605 45.2H233.605C231.205 36.56 222.325 30.2 211.885 30.2C202.045 30.2 193.765 35.84 190.645 43.64C190.405 44.6 189.925 45.44 189.445 46.16L187.045 49.64L188.605 50.72L190.885 47.12C191.725 45.92 193.045 45.2 194.605 45.2ZM300.822 18.56C316.422 18.56 329.142 31.28 329.142 46.88H315.822C315.822 37.64 309.102 30.2 300.822 30.2C288.462 30.2 278.382 39.2 278.382 50.24V80.12H265.182V20.24H278.382V21.08C278.382 23 278.022 24.8 277.302 26.48L274.302 33.2L275.862 33.92L278.262 28.64C279.582 25.64 282.102 23.12 285.102 21.8C289.902 19.76 295.182 18.56 300.822 18.56ZM419.601 70.16H427.881V81.8H419.601C408.561 81.8 399.681 74.36 399.681 65.12V0.319996H412.881V65.12C412.881 67.88 415.881 70.16 419.601 70.16ZM497.953 20.24H511.273V80.12H497.953V50.24C497.953 39.2 487.993 30.2 475.513 30.2C463.153 30.2 453.073 39.2 453.073 50.24C453.073 61.16 459.793 70.16 468.073 70.16C476.353 70.16 483.073 62.72 483.073 53.48H496.273C496.273 69.08 483.673 81.8 468.073 81.8C452.473 81.8 439.873 67.64 439.873 50.24C439.873 32.72 455.833 18.56 475.513 18.56C481.153 18.56 486.553 19.76 491.233 21.8C494.353 23.12 496.753 25.64 498.193 28.64L500.473 33.92L502.153 33.2L499.153 26.48C498.433 24.8 497.953 23 497.953 21.08V20.24ZM567.142 18.56C586.942 18.56 602.902 32.72 602.902 50.24C602.902 67.64 590.302 81.8 574.702 81.8C559.102 81.8 546.382 69.08 546.382 53.48H559.702C559.702 62.72 566.422 70.16 574.702 70.16C582.862 70.16 589.582 61.16 589.582 50.24C589.582 39.2 579.622 30.2 567.142 30.2C554.782 30.2 544.702 39.2 544.702 50.24V80.12H531.502V0.319996H544.702V21.08C544.702 23 544.342 24.8 543.622 26.48L540.622 33.2L542.182 33.92L544.582 28.64C545.902 25.64 548.422 23.12 551.422 21.8C556.222 19.76 561.502 18.56 567.142 18.56ZM668.971 49.04C674.491 52.52 677.851 57.32 677.851 62.6C677.851 73.16 664.531 81.8 647.971 81.8C631.411 81.8 618.091 73.16 618.091 62.6C618.091 62.36 618.091 62.12 618.091 61.88H631.411C631.411 62.12 631.291 62.36 631.291 62.6C631.291 66.8 638.731 70.16 647.971 70.16C657.091 70.16 664.531 66.8 664.531 62.6C664.531 58.52 656.251 56.84 647.971 55.16C639.691 53.48 632.011 52.88 626.851 49.04C622.411 45.8 619.651 41.6 619.651 36.92C619.651 26.84 632.371 18.56 647.971 18.56C663.571 18.56 676.171 26.84 676.171 36.92H662.851C662.851 33.2 656.251 30.2 647.971 30.2C639.691 30.2 632.971 33.2 632.971 36.92C632.971 40.52 639.811 41.96 647.971 43.52C656.251 45.2 663.571 45.68 668.971 49.04Z" fill="black"/>
</svg>
