<svg width="436" height="368" viewBox="0 0 436 368" fill="none" xmlns="http://www.w3.org/2000/svg">
<path d="M199.831 331.846C196.489 331.474 181.75 328.635 180.049 307.931C170.054 305.896 160.816 303.338 152.668 300.376C146.566 307.653 137.718 314.738 126.947 313.527C123.356 313.126 119.923 311.778 117.024 309.649C114.242 307.595 102.306 297.249 112.696 277.378C110.007 276.291 107.396 275.168 104.879 274.034C71.9514 259.121 60.6681 242.746 58.1406 229.352C32.8948 215.34 21.1037 199.414 23.0617 181.939C23.2298 180.433 23.5096 178.929 23.8993 177.436C23.8536 175.928 23.9079 174.43 24.072 172.943C24.9904 164.714 29.5296 152.904 45.7699 143.011C46.1464 142.76 46.5424 142.512 46.9444 142.287L48.2071 141.58C49.2737 140.988 50.4031 140.387 51.5482 139.81C56.207 137.466 61.5738 135.305 67.4859 133.375C68.0526 133.192 68.6409 133.004 69.2291 132.815C70.2743 132.483 71.3489 132.157 72.4411 131.845C74.5295 131.242 76.716 130.659 78.928 130.101L80.3771 129.738C80.6026 129.681 80.8262 129.633 81.0497 129.586C82.5165 129.237 84.0128 128.893 85.5482 128.557C90.3103 114.915 98.8225 102.358 110.609 91.7395C114.737 88.0156 119.253 84.5523 124.088 81.3772C111.104 79.1428 101.934 67.0952 103.417 53.8391C104.959 40.0848 117.405 30.1485 131.159 31.6903C138.58 32.5188 144.895 36.5425 148.888 42.2341C163.12 46.4919 172.582 53.7032 178.792 60.653C194.395 58.0364 210.577 57.6356 227.053 59.4862C243.779 61.3661 259.684 65.4173 274.505 71.5772C282.084 66.1966 292.904 61.2893 307.665 60.289C312.827 55.6292 319.876 53.1102 327.298 53.9387C341.052 55.4805 350.988 67.9259 349.447 81.6801C347.954 95.0363 336.179 104.78 322.917 103.938C326.824 108.022 330.365 112.298 333.495 116.746C342.459 129.467 347.952 143.33 349.677 157.42C351.158 158.073 352.62 158.721 354.048 159.383C354.34 159.503 354.63 159.632 354.919 159.771C354.919 159.771 356.399 160.475 356.409 160.477C359.905 162.123 363.324 163.845 366.574 165.595C367.449 166.066 368.312 166.544 369.165 167.02C371.064 168.082 372.785 169.068 374.395 170.042C376.478 171.304 378.442 172.553 380.229 173.766C381.228 174.434 382.185 175.104 383.101 175.777L384.411 176.722C384.776 176.988 385.12 177.261 385.461 177.543C400.857 189.355 407.885 202.219 406.369 215.795C406.201 217.301 405.919 218.815 405.541 220.3C405.587 221.808 405.521 223.314 405.358 224.791C404.491 232.51 400.491 243.714 386.311 253.243C379.928 257.537 371.839 261.225 362.199 264.257C356.495 276.538 341.755 289.596 307.075 296.696C304.374 297.248 301.592 297.753 298.734 298.223C304.462 319.903 290.535 327.351 287.362 328.737C284.076 330.182 280.428 330.729 276.827 330.326C266.076 329.118 259.028 320.288 254.684 311.855C245.51 313.012 235.25 313.432 224.306 313.083C218.025 332.703 203.114 332.205 199.782 331.836L199.831 331.846Z" fill="white" stroke="#302348" stroke-width="2" stroke-miterlimit="10" stroke-linecap="round"/>
<path d="M205.305 292.518C246.606 297.148 281.216 290.828 282.609 278.403C284.002 265.977 251.651 252.15 210.35 247.52C169.049 242.89 134.439 249.209 133.046 261.635C131.653 274.061 164.005 287.888 205.305 292.518Z" fill="#6748BF"/>
<path d="M205.16 293.854C162.481 289.068 130.23 274.851 131.723 261.495C133.217 248.129 167.821 241.412 210.5 246.197C253.179 250.983 285.43 265.2 283.937 278.556C282.442 291.922 247.838 298.639 205.16 293.854ZM210.205 248.851C166.269 243.927 135.519 251.566 134.376 261.79C133.233 272.014 161.519 286.276 205.455 291.2C249.391 296.125 280.141 288.485 281.284 278.261C282.427 268.037 254.141 253.775 210.205 248.851Z" fill="#302348"/>
<path d="M206.593 280.059C280.989 288.399 343.491 275.602 346.196 251.474C348.901 227.347 290.784 201.027 216.388 192.686C141.992 184.346 79.4891 197.143 76.7842 221.271C74.0793 245.398 132.196 271.718 206.593 280.059Z" fill="#7666CB"/>
<path d="M206.445 281.384C170.329 277.337 136.872 268.957 112.229 257.798C87.1374 246.438 74.0845 233.411 75.4661 221.124C76.8477 208.836 92.4604 199.022 119.444 193.497C145.949 188.069 180.433 187.314 216.55 191.361C252.666 195.408 286.123 203.788 310.766 214.947C335.857 226.308 348.91 239.334 347.529 251.621C346.147 263.909 330.534 273.723 303.551 279.248C277.046 284.676 242.562 285.431 206.445 281.384ZM216.243 194.022C180.397 189.999 146.209 190.752 119.97 196.121C94.5931 201.314 79.3331 210.536 78.1079 221.427C76.8846 232.308 89.7195 244.689 113.324 255.376C137.714 266.423 170.892 274.717 206.738 278.74C242.584 282.764 276.771 282.021 303.011 276.642C328.388 271.449 343.648 262.227 344.873 251.336C346.097 240.455 333.26 228.083 309.657 217.387C285.267 206.34 252.089 198.046 216.243 194.022Z" fill="#302348"/>
<path d="M386.377 222.665C383.431 248.977 309.9 262.303 214.829 251.64C119.757 240.976 39.1489 210.368 42.0957 184.056C42.2696 182.52 42.7024 181.016 43.3921 179.552C49.2917 204.765 126.131 232.592 215.839 242.644C305.347 252.676 375.754 241.459 386.156 218.154C386.466 219.664 386.553 221.17 386.389 222.657L386.377 222.665Z" fill="#175E17"/>
<path d="M214.676 252.966C168.885 247.834 123.882 237.629 91.2197 224.961C57.1921 211.776 39.2789 197.198 40.7698 183.903C40.9574 182.248 41.4314 180.589 42.1799 178.984L43.816 175.487L44.6981 179.242C50.3777 203.513 127.223 231.362 215.991 241.318C301.967 250.961 374.608 240.761 384.94 217.606L386.623 213.822L387.466 217.875C387.808 219.534 387.895 221.193 387.717 222.8C386.21 236.275 367.619 246.759 335.388 252.319C303.303 257.856 260.43 258.08 214.688 252.958L214.676 252.966ZM43.484 183.69C43.4507 183.857 43.4351 184.037 43.4116 184.206C42.0868 196.005 59.8605 209.953 92.1757 222.47C124.64 235.057 169.4 245.204 214.971 250.312C260.472 255.416 303.069 255.199 334.922 249.697C365.369 244.444 383.637 234.558 385.048 222.583C368.504 244.366 299.387 253.363 215.696 243.971C128.893 234.234 55.7022 208.308 43.4958 183.682L43.484 183.69Z" fill="#302348"/>
<path d="M387.39 213.659C387.216 215.194 386.793 216.701 386.146 218.152C375.744 241.457 305.335 252.684 215.829 242.642C126.124 232.58 49.2818 204.763 43.3823 179.55C43.0306 178.042 42.9319 176.544 43.0961 175.057C43.8015 168.764 48.8982 163.102 57.5607 158.274C64.233 154.527 73.0354 151.298 83.5755 148.659C89.8996 147.066 96.8534 145.691 104.341 144.554C107.45 146.704 111.354 149.217 115.977 151.904C138.169 164.868 176.866 182.35 223.21 187.214C267.607 191.874 300.453 182.98 322.003 175.146C326.664 173.456 328.307 172.02 331.12 170.44C337.181 172.822 342.921 175.283 348.242 177.793C357.524 182.175 365.571 186.717 371.907 191.296C382.345 198.825 388.171 206.473 387.368 213.665L387.39 213.659Z" fill="#8F84CB"/>
<path d="M215.685 243.979C124.353 233.736 48.0996 205.577 42.0861 179.863C41.6951 178.194 41.5886 176.531 41.7782 174.917C42.5188 168.294 47.6212 162.296 56.915 157.115C63.654 153.341 72.5171 150.062 83.2613 147.373C89.5952 145.782 96.6234 144.391 104.154 143.242L104.679 143.164L105.119 143.465C108.587 145.861 112.471 148.318 116.665 150.756C135.332 161.661 173.998 180.676 223.363 185.888C257.412 189.462 289.532 185.532 321.561 173.886C324.847 172.696 326.545 171.648 328.345 170.549C329.031 170.125 329.716 169.711 330.486 169.273L331.037 168.965L331.624 169.194C337.695 171.579 343.489 174.071 348.83 176.585C358.428 181.121 366.467 185.703 372.715 190.213C384.169 198.475 389.548 206.421 388.723 213.823C388.536 215.478 388.085 217.122 387.38 218.715C376.419 243.285 304.212 253.918 215.692 243.991L215.685 243.979ZM104.029 145.96C96.7814 147.073 90.0159 148.425 83.9075 149.96C73.3889 152.592 64.7474 155.782 58.2143 159.444C49.7008 164.19 45.0629 169.495 44.4219 175.21C44.2734 176.516 44.3583 177.879 44.6844 179.26C50.3639 203.531 127.21 231.379 215.98 241.326C301.955 250.969 374.596 240.769 384.928 217.614C385.522 216.274 385.908 214.903 386.062 213.516C386.765 207.232 381.607 199.921 371.151 192.379C365.038 187.957 357.146 183.455 347.696 179C342.578 176.591 337.046 174.213 331.242 171.923C330.713 172.225 330.225 172.525 329.737 172.825C327.901 173.948 326.005 175.119 322.466 176.401C290.053 188.185 257.536 192.158 223.077 188.544C173.242 183.34 134.158 164.067 115.317 153.067C111.242 150.694 107.447 148.305 104.037 145.972L104.029 145.96Z" fill="#302348"/>
<path d="M298.661 209.125C297.732 205.299 298.424 201.471 300.21 198.35C302.005 195.231 304.914 192.814 308.568 191.779C312.221 190.744 315.967 191.287 319.131 193.01C322.295 194.733 324.885 197.646 326.085 201.393C327.284 205.14 326.835 209.028 325.075 212.276C323.317 215.515 320.23 218.11 316.317 219.216C312.396 220.32 308.414 219.729 305.215 217.877C302.013 216.035 299.6 212.953 298.671 209.127L298.661 209.125Z" fill="white"/>
<path d="M310.558 220.993C308.444 220.755 306.383 220.099 304.537 219.027C300.906 216.936 298.353 213.53 297.365 209.438C296.396 205.451 296.997 201.268 299.058 197.682C301.102 194.133 304.355 191.58 308.212 190.494C312.069 189.408 316.176 189.881 319.774 191.833C323.416 193.814 326.103 197.063 327.361 200.975C328.651 204.985 328.255 209.219 326.246 212.897C324.261 216.559 320.771 219.33 316.677 220.481C314.667 221.048 312.586 221.204 310.56 220.983L310.558 220.993ZM313.732 192.677C312.135 192.501 310.51 192.625 308.933 193.065C305.756 193.961 303.07 196.076 301.373 199.01C299.654 202.002 299.154 205.481 299.959 208.803C300.784 212.18 302.884 214.995 305.875 216.714C308.875 218.444 312.54 218.88 315.954 217.92C319.358 216.958 322.252 214.67 323.908 211.635C325.552 208.608 325.882 205.115 324.82 201.803C323.777 198.546 321.533 195.845 318.498 194.189C316.989 193.368 315.377 192.862 313.732 192.677Z" fill="#302348"/>
<path d="M371.929 191.29C370.298 192.821 368.266 194.006 365.933 194.662C362.019 195.777 358.03 195.175 354.84 193.325C351.627 191.491 349.225 188.401 348.296 184.575C347.728 182.259 347.763 179.941 348.266 177.778C357.548 182.159 365.594 186.702 371.931 191.28L371.929 191.29Z" fill="white"/>
<path d="M360.191 196.453C358.077 196.214 356.016 195.558 354.17 194.486C350.547 192.407 347.994 189.001 346.988 184.895C346.391 182.471 346.384 179.9 346.959 177.476L347.341 175.87L348.832 176.575C358.432 181.102 366.469 185.693 372.717 190.203L374.027 191.148L372.847 192.259C371.004 193.981 368.741 195.253 366.3 195.938C364.3 196.508 362.219 196.664 360.193 196.443L360.191 196.453ZM349.278 179.754C349.12 181.262 349.217 182.77 349.59 184.272C350.413 187.659 352.515 190.465 355.508 192.173C358.508 193.904 362.181 194.352 365.577 193.377C367.077 192.963 368.489 192.276 369.74 191.373C364.196 187.524 357.337 183.626 349.288 179.756L349.278 179.754Z" fill="#302348"/>
<path d="M229.675 217.923C229.765 213.995 231.398 210.466 233.828 207.892C236.271 205.31 239.51 203.642 243.177 203.456C246.847 203.261 250.293 204.591 253.002 206.906C255.708 209.241 257.668 212.599 258.111 216.512C258.556 220.414 257.353 224.141 254.923 226.97C252.502 229.801 248.851 231.693 244.656 231.916C240.461 232.139 236.583 230.621 233.866 228.039C231.139 225.456 229.582 221.861 229.675 217.923Z" fill="white"/>
<path d="M242.042 233.159C238.622 232.772 235.403 231.324 232.96 229.001C229.888 226.103 228.251 222.146 228.347 217.883C228.442 213.833 230.042 209.951 232.861 206.965C235.629 204.03 239.276 202.311 243.12 202.109C246.976 201.9 250.796 203.243 253.89 205.88C257.023 208.575 259.004 212.295 259.46 216.342C259.935 220.557 258.693 224.633 255.956 227.819C253.226 231.026 249.142 232.995 244.751 233.23C243.845 233.274 242.942 233.247 242.054 233.151L242.042 233.159ZM231.016 217.946C230.939 221.449 232.282 224.684 234.795 227.062C237.352 229.479 240.919 230.763 244.598 230.569C248.258 230.371 251.652 228.744 253.916 226.086C256.172 223.467 257.189 220.111 256.799 216.648C256.413 213.267 254.759 210.163 252.14 207.907C249.578 205.723 246.426 204.604 243.251 204.776C240.046 204.942 237.126 206.338 234.8 208.8C232.431 211.315 231.091 214.556 231.016 217.946Z" fill="#302348"/>
<path d="M161.85 203.225C163.21 199.529 165.929 196.737 169.142 195.146C172.366 193.556 176.096 193.158 179.671 194.3C183.237 195.44 186.005 197.92 187.699 201.082C189.385 204.233 189.997 208.067 188.992 211.874C187.997 215.683 185.516 218.716 182.237 220.478C178.961 222.231 174.902 222.696 170.971 221.442C167.042 220.179 164.037 217.458 162.404 214.144C160.761 210.828 160.49 206.92 161.848 203.234L161.85 203.225Z" fill="white"/>
<path d="M173.694 223.382C172.637 223.263 171.589 223.044 170.556 222.705C166.464 221.389 163.056 218.486 161.198 214.719C159.347 210.964 159.123 206.718 160.589 202.748C162.009 198.902 164.836 195.775 168.548 193.936C172.212 192.128 176.305 191.803 180.071 193.013C183.827 194.222 186.952 196.854 188.868 200.439C190.813 204.08 191.315 208.259 190.283 212.203C189.208 216.312 186.571 219.661 182.861 221.643C180.085 223.139 176.867 223.73 173.696 223.373L173.694 223.382ZM161.85 203.225L163.103 203.689C161.901 206.957 162.078 210.459 163.604 213.547C165.134 216.657 167.965 219.078 171.378 220.167C174.809 221.27 178.533 220.953 181.605 219.302C184.652 217.677 186.814 214.917 187.703 211.535C188.565 208.24 188.15 204.751 186.525 201.704C184.935 198.736 182.361 196.56 179.266 195.565C176.161 194.568 172.772 194.84 169.741 196.336C166.641 197.869 164.285 200.478 163.105 203.679L161.852 203.215L161.85 203.225Z" fill="#302348"/>
<path d="M98.4712 174.27C102.228 167.352 110.721 164.703 117.539 168.144C124.355 171.594 127.236 180.001 123.895 187.135C120.556 194.259 111.897 197.232 104.663 193.575C97.4381 189.921 94.7046 181.187 98.4614 174.268L98.4712 174.27Z" fill="white"/>
<path d="M109.465 196.39C107.609 196.182 105.791 195.636 104.059 194.76C100.224 192.822 97.4163 189.519 96.1458 185.461C94.9008 181.481 95.311 177.28 97.2942 173.627C101.341 166.175 110.689 163.177 118.145 166.949C125.71 170.784 128.766 179.898 125.109 187.693C123.35 191.452 120.209 194.261 116.256 195.624C114.044 196.386 111.73 196.638 109.467 196.38L109.465 196.39ZM112.689 168.073C107.562 167.498 102.264 170.081 99.6501 174.903C98.0196 177.912 97.6857 181.374 98.7107 184.668C99.7633 188.029 102.092 190.768 105.278 192.383C108.463 193.997 112.062 194.257 115.392 193.106C118.645 191.981 121.239 189.664 122.693 186.569C125.689 180.192 123.101 172.466 116.943 169.34C115.582 168.65 114.144 168.241 112.699 168.075L112.689 168.073Z" fill="#302348"/>
<path d="M82.306 156.707C78.9671 163.831 70.3078 166.804 63.0736 163.147C60.7491 161.969 58.8873 160.262 57.5607 158.274C64.2331 154.527 73.0354 151.298 83.5756 148.659C83.914 151.307 83.5209 154.094 82.2962 156.705L82.306 156.707Z" fill="white"/>
<path d="M67.8855 165.963C66.0301 165.756 64.2119 165.21 62.4798 164.334C60.0338 163.101 57.9542 161.259 56.4569 159.002L55.6563 157.802L56.919 157.095C63.658 153.321 72.5211 150.043 83.2652 147.353L84.7242 146.992L84.917 148.478C85.3006 151.461 84.8174 154.495 83.5202 157.265C81.7606 161.023 78.62 163.833 74.6767 165.198C72.4648 165.959 70.1507 166.211 67.8757 165.961L67.8855 165.963ZM59.5652 158.704C60.6954 160.041 62.0961 161.147 63.6791 161.952C66.8745 163.569 70.4635 163.826 73.8029 162.678C77.056 161.553 79.6497 159.236 81.0938 156.138C81.9501 154.3 82.3847 152.327 82.3623 150.345C73.2321 152.713 65.5749 155.519 59.5554 158.702L59.5652 158.704Z" fill="#302348"/>
<path d="M330.772 173.715C330.772 173.715 330.751 173.721 330.741 173.719C327.137 175.172 322.996 176.813 318.335 178.504C296.785 186.337 263.939 195.231 219.542 190.571C173.196 185.717 134.511 168.227 112.309 155.261C107.686 152.574 103.792 150.063 100.673 147.911C100.673 147.911 100.653 147.907 100.643 147.905C105.74 102.444 161.387 71.3739 224.931 78.4986C288.476 85.6232 335.861 128.242 330.763 173.713L330.772 173.715Z" fill="#2C7F4D"/>
<path d="M217.591 191.712C168.599 186.217 130.249 167.305 111.639 156.422C107.5 154.016 103.649 151.595 100.199 149.214L99.9495 149.184L99.2745 148.275L99.3351 147.767C104.502 101.646 160.919 69.9856 225.093 77.1747C289.268 84.3638 337.275 127.749 332.1 173.858L332.046 174.387L331.201 175.096L330.95 175.076C327.291 176.549 323.285 178.125 318.808 179.76C286.395 191.544 253.878 195.517 219.419 191.903C218.819 191.844 218.211 191.774 217.613 191.706L217.591 191.712ZM102.077 147.263C105.378 149.523 109.048 151.826 112.987 154.111C131.654 165.016 170.332 184.074 219.685 189.244C253.734 192.817 285.854 188.887 317.883 177.241C322.16 175.688 325.999 174.18 329.525 172.763C333.89 128.409 287.127 86.8122 224.789 79.8263C162.45 72.8404 107.65 103.039 102.077 147.263Z" fill="#302348"/>
<path d="M215.069 163.957C238.658 166.602 259.39 154.392 261.375 136.686C263.36 118.98 245.847 102.483 222.257 99.8386C198.668 97.194 177.936 109.403 175.951 127.109C173.966 144.815 191.479 161.312 215.069 163.957Z" fill="white"/>
<path d="M214.911 165.286C190.625 162.56 172.55 145.37 174.624 126.96C176.687 108.547 198.119 95.7853 222.406 98.5113C246.692 101.237 264.767 118.427 262.703 136.84C260.64 155.252 239.207 168.014 214.921 165.288L214.911 165.286ZM222.101 101.163C199.28 98.6069 179.171 110.308 177.277 127.255C175.374 144.2 192.397 160.069 215.208 162.623C238.03 165.179 258.139 153.478 260.032 136.531C261.926 119.584 244.912 103.717 222.091 101.161L222.101 101.163Z" fill="#302348"/>
<path d="M231.115 137.082C231.004 138.049 236.541 139.633 236.374 140.569C233.836 154.766 224.698 165.047 215.103 163.968C204.879 162.825 198.021 149.209 199.776 133.57C201.531 117.931 211.24 106.174 221.452 107.325C230.788 108.373 237.315 119.811 237.052 133.698C237.023 135.018 231.263 135.725 231.115 137.082Z" fill="#302348"/>
<path d="M274.893 100.39C274.763 100.375 274.638 100.34 274.514 100.294C273.838 100.006 273.514 99.228 273.804 98.5415C273.902 98.3061 283.932 75.5388 318.559 78.1057C319.318 78.1348 319.848 78.8014 319.793 79.5349C319.738 80.2684 319.097 80.8236 318.364 80.769C285.727 78.3445 276.634 98.7188 276.267 99.5838C276.034 100.139 275.462 100.453 274.893 100.39Z" fill="#302348"/>
<path d="M323.355 84.7325C326.583 85.3767 329.722 83.2822 330.366 80.0542C331.01 76.8263 328.916 73.6872 325.688 73.043C322.46 72.3988 319.321 74.4933 318.676 77.7213C318.032 80.9492 320.127 84.0882 323.355 84.7325Z" fill="#EBB017"/>
<path d="M323.708 86.1287C319.709 85.6773 316.821 82.0621 317.272 78.0631C317.724 74.0641 321.337 71.1856 325.338 71.6272C329.339 72.0688 332.225 75.6938 331.776 79.683C331.326 83.6722 327.709 86.5703 323.71 86.1189L323.708 86.1287ZM325.031 74.2886C322.497 74.0072 320.205 75.834 319.924 78.3679C319.643 80.9019 321.469 83.1937 324.003 83.4751C326.537 83.7565 328.829 81.9297 329.111 79.3958C329.392 76.8619 327.565 74.57 325.031 74.2886Z" fill="#302348"/>
<path d="M172.011 88.5964C171.443 88.5339 170.948 88.0987 170.842 87.5065C170.673 86.5652 166.309 64.6981 133.955 59.8318C133.222 59.7262 132.725 59.0459 132.831 58.3123C132.946 57.5808 133.607 57.0804 134.35 57.188C168.683 62.3574 173.423 86.7877 173.466 87.0308C173.596 87.7603 173.112 88.4489 172.382 88.5786C172.255 88.6042 172.121 88.6081 172.002 88.5945L172.011 88.5964Z" fill="#302348"/>
<path d="M127.208 62.4723C130.436 63.1165 133.575 61.022 134.219 57.794C134.863 54.5661 132.769 51.427 129.541 50.7828C126.313 50.1386 123.174 52.2331 122.53 55.4611C121.885 58.689 123.98 61.828 127.208 62.4723Z" fill="#EBB017"/>
<path d="M127.56 63.8783C123.561 63.4269 120.672 59.8117 121.124 55.8127C121.575 51.8137 125.19 48.9254 129.189 49.3768C133.188 49.8282 136.077 53.4434 135.625 57.4424C135.174 61.4414 131.559 64.3297 127.56 63.8783ZM128.882 52.0382C126.349 51.7568 124.057 53.5836 123.775 56.1175C123.494 58.6515 125.321 60.9433 127.855 61.2247C130.389 61.5061 132.68 59.6793 132.962 57.1454C133.243 54.6115 131.416 52.3196 128.882 52.0382Z" fill="#302348"/>
<path d="M103.392 238.312C102.291 240.917 97.8336 241.638 93.2122 239.4C88.9066 237.216 86.5418 233.429 87.8234 230.891C89.0952 228.351 93.6273 228.073 97.8231 230.195C101.776 232.105 104.517 235.691 103.402 238.314L103.392 238.312Z" fill="white"/>
<path d="M97.3492 241.664C95.8626 241.5 94.2935 241.034 92.7674 240.301C87.9341 237.847 85.3711 233.522 86.9133 230.444C87.4521 229.379 88.4265 228.585 89.7462 228.155C92.115 227.373 95.302 227.805 98.2562 229.302C102.338 231.28 105.729 235.342 104.302 238.708C103.818 239.855 102.836 240.74 101.479 241.254C100.277 241.708 98.8535 241.842 97.3374 241.672L97.3492 241.664ZM93.277 229.828C92.2003 229.705 91.206 229.782 90.3765 230.055C89.5686 230.322 89.002 230.759 88.712 231.344C87.6989 233.354 89.9712 236.633 93.6649 238.512C96.2031 239.742 98.941 240.075 100.784 239.372C101.369 239.152 102.127 238.722 102.47 237.924C103.301 235.958 100.968 232.831 97.3783 231.095C96.017 230.405 94.593 229.978 93.2868 229.83L93.277 229.828Z" fill="#302348"/>
<path d="M96.9786 236.981C96.9257 237.093 97.781 237.61 97.7183 237.72C96.8109 239.303 94.9716 240.037 93.3083 239.226C91.6605 238.387 91.1459 236.316 92.0296 234.545C92.9252 232.766 94.9645 232 96.52 232.79C97.9029 233.474 98.5802 235.241 98.0612 236.922C98.0083 237.084 97.0394 236.83 96.9669 236.989L96.9786 236.981Z" fill="#302348"/>
<path d="M134.934 249.236C134.155 251.967 129.744 253.116 125.123 251.643C120.5 250.18 117.541 246.714 118.486 244.026C119.426 241.359 123.773 240.422 128.234 241.832C132.694 243.242 135.725 246.498 134.946 249.229L134.934 249.236Z" fill="white"/>
<path d="M127.656 253.209C126.728 253.105 125.769 252.904 124.82 252.602C121.607 251.583 119.01 249.627 117.879 247.372C117.253 246.116 117.131 244.837 117.532 243.693C118.645 240.52 123.481 239.282 128.525 240.881C133.666 242.508 136.831 246.219 135.899 249.511C135.564 250.678 134.739 251.645 133.494 252.314C131.929 253.154 129.86 253.455 127.666 253.211L127.656 253.209ZM125.455 242.266C122.523 241.936 119.999 242.728 119.427 244.367C119.149 245.148 119.408 245.944 119.677 246.487C120.55 248.242 122.757 249.855 125.423 250.703C128.079 251.549 130.813 251.493 132.538 250.563C133.063 250.281 133.746 249.774 133.967 248.972C134.572 246.86 131.802 244.033 127.918 242.799C127.085 242.53 126.251 242.364 125.453 242.276L125.455 242.266Z" fill="#302348"/>
<path d="M128.417 248.68C128.384 248.796 129.29 249.211 129.239 249.313C128.555 251.002 126.806 251.948 125.184 251.441C123.454 250.912 122.571 248.9 123.192 247.015C123.815 245.121 125.667 244.063 127.36 244.574C128.896 245.054 129.785 246.73 129.488 248.476C129.454 248.642 128.472 248.508 128.417 248.68Z" fill="#302348"/>
<path d="M167.381 257.109C167.105 258.492 165.895 259.597 164.168 260.18C162.44 260.763 160.185 260.874 157.819 260.361C153.094 259.306 149.84 256.147 150.521 253.398C151.206 250.628 155.461 249.285 160.037 250.321C162.336 250.81 164.296 251.823 165.63 253.058C166.954 254.291 167.659 255.717 167.379 257.119L167.381 257.109Z" fill="white"/>
<path d="M159.153 261.596C158.645 261.535 158.122 261.451 157.602 261.347C154.293 260.605 151.535 258.892 150.218 256.753C149.486 255.567 149.254 254.328 149.538 253.161C150.361 249.858 155.061 248.175 160.253 249.344C162.64 249.851 164.793 250.913 166.306 252.326C167.958 253.859 168.686 255.626 168.35 257.313C168.009 259.019 166.598 260.42 164.476 261.139C162.923 261.665 161.066 261.824 159.142 261.604L159.153 261.596ZM158.412 251.057C154.982 250.668 151.966 251.728 151.494 253.633C151.335 254.274 151.483 254.966 151.93 255.688C152.954 257.35 155.293 258.765 158.035 259.384C160.108 259.828 162.23 259.773 163.838 259.227C165.259 258.746 166.193 257.902 166.39 256.911C166.652 255.597 165.599 254.388 164.944 253.788C163.688 252.62 161.875 251.738 159.822 251.297C159.343 251.192 158.871 251.108 158.412 251.057Z" fill="#302348"/>
<path d="M160.844 257.11C160.821 257.228 161.754 257.557 161.721 257.672C161.188 259.422 159.531 260.519 157.87 260.157C156.099 259.783 155.045 257.859 155.492 255.929C155.942 253.98 157.693 252.769 159.425 253.135C161.009 253.472 162.028 255.062 161.891 256.819C161.878 256.99 160.887 256.945 160.842 257.12L160.844 257.11Z" fill="#302348"/>
<path d="M200.354 262.344C200.025 265.164 195.876 266.947 191.085 266.327C186.298 265.636 182.804 262.757 183.261 259.952C183.721 257.138 187.849 255.463 192.509 256.128C197.171 256.732 200.684 259.514 200.356 262.334L200.354 262.344Z" fill="white"/>
<path d="M191.248 267.349C191.15 267.329 191.058 267.331 190.96 267.311C187.6 266.824 184.717 265.331 183.235 263.302C182.409 262.179 182.081 260.961 182.277 259.776C182.826 256.409 187.387 254.352 192.657 255.128C197.925 255.812 201.751 259.023 201.354 262.442C201.219 263.628 200.567 264.701 199.48 265.545C197.571 267.04 194.512 267.704 191.252 267.329L191.248 267.349ZM191.954 257.068C188.075 256.63 184.592 257.985 184.25 260.109C184.14 260.76 184.343 261.433 184.847 262.125C186.001 263.701 188.449 264.924 191.224 265.325C194.021 265.669 196.709 265.175 198.242 263.982C198.907 263.462 199.279 262.874 199.358 262.227C199.621 259.985 196.416 257.652 192.37 257.13C192.232 257.103 192.091 257.095 191.952 257.078L191.954 257.068Z" fill="#302348"/>
<path d="M193.841 262.839C193.817 262.956 194.786 263.211 194.763 263.329C194.367 265.106 192.797 266.332 191.126 266.121C189.337 265.886 188.135 264.045 188.424 262.084C188.715 260.113 190.364 258.749 192.121 258.988C193.722 259.195 194.87 260.699 194.865 262.462C194.863 262.625 193.874 262.672 193.851 262.841L193.841 262.839Z" fill="#302348"/>
<path d="M233.63 265.039C233.572 266.455 232.537 267.706 230.917 268.566C229.296 269.435 227.084 269.84 224.685 269.698C219.864 269.429 216.165 266.764 216.403 263.936C216.651 261.11 220.639 259.163 225.338 259.427C227.685 259.57 229.78 260.314 231.287 261.298C232.791 262.292 233.69 263.613 233.63 265.039Z" fill="white"/>
<path d="M223.795 270.632C220.812 270.302 218.195 269.107 216.679 267.356C215.751 266.283 215.309 265.074 215.41 263.85C215.701 260.451 219.999 258.127 225.404 258.431C227.793 258.571 230.074 259.302 231.849 260.472C233.723 261.713 234.722 263.35 234.64 265.087C234.558 266.825 233.412 268.381 231.402 269.458C229.61 270.416 227.206 270.864 224.636 270.708C224.354 270.693 224.074 270.667 223.805 270.634L223.795 270.632ZM225.942 260.486C225.723 260.463 225.513 260.441 225.291 260.428C221.137 260.19 217.602 261.809 217.417 264.016C217.34 264.857 217.8 265.571 218.196 266.037C219.481 267.517 222 268.54 224.751 268.702C226.958 268.836 228.987 268.477 230.46 267.69C231.819 266.961 232.601 266.006 232.64 264.994C232.696 263.639 231.481 262.621 230.742 262.137C229.418 261.261 227.737 260.691 225.942 260.486Z" fill="#302348"/>
<path d="M227.178 266.045C227.174 266.167 228.147 266.351 228.133 266.471C227.865 268.273 226.397 269.601 224.714 269.5C222.912 269.385 221.57 267.679 221.72 265.701C221.86 263.72 223.407 262.203 225.18 262.312C226.79 262.419 228.046 263.843 228.174 265.602C228.182 265.767 227.202 265.877 227.188 266.047L227.178 266.045Z" fill="#302348"/>
<path d="M267.021 265.37C267.097 268.21 263.252 270.665 258.431 270.651C256.021 270.67 253.84 270.102 252.271 269.177C250.705 268.232 249.744 266.919 249.763 265.495C249.782 264.071 250.758 262.808 252.307 261.893C253.862 260.949 255.997 260.366 258.356 260.347C263.065 260.359 266.937 262.519 267.023 265.361L267.021 265.37Z" fill="white"/>
<path d="M256.588 271.558C254.772 271.359 253.103 270.832 251.761 270.044C249.833 268.874 248.746 267.219 248.764 265.49C248.783 263.76 249.863 262.181 251.804 261.038C253.567 259.973 255.901 259.368 258.35 259.357C263.771 259.378 267.929 261.942 268.027 265.337C268.059 266.556 267.545 267.749 266.557 268.765C264.799 270.576 261.76 271.652 258.437 271.642C257.814 271.65 257.2 271.609 256.6 271.55L256.588 271.558ZM259.89 261.449C259.392 261.39 258.878 261.359 258.357 261.367C256.274 261.38 254.309 261.875 252.827 262.762C252.052 263.219 250.782 264.169 250.759 265.51C250.744 266.507 251.487 267.532 252.778 268.32C254.23 269.17 256.283 269.662 258.417 269.649C261.178 269.66 263.739 268.784 265.111 267.375C265.535 266.94 266.041 266.245 266.015 265.404C265.963 263.467 263.33 261.84 259.888 261.459L259.89 261.449Z" fill="#302348"/>
<path d="M260.654 266.822C260.659 266.946 261.646 267.061 261.632 267.181C261.494 268.999 260.127 270.429 258.433 270.438C256.637 270.446 255.171 268.848 255.17 266.86C255.169 264.871 256.604 263.251 258.381 263.238C259.995 263.224 261.359 264.567 261.603 266.308C261.63 266.477 260.648 266.648 260.654 266.822Z" fill="#302348"/>
<path d="M300.36 263.407C300.635 266.267 296.957 268.857 292.149 269.243C287.344 269.661 283.305 267.519 283.145 264.693C282.989 261.848 286.671 259.391 291.362 258.981C296.057 258.602 300.082 260.609 300.35 263.406L300.36 263.407Z" fill="white"/>
<path d="M289.355 270.215C287.179 269.975 285.249 269.223 283.902 268.056C282.815 267.115 282.206 265.974 282.145 264.748C281.963 261.368 285.888 258.459 291.275 257.985C296.592 257.557 301.019 259.899 301.348 263.309C301.466 264.505 301.053 265.708 300.169 266.765C298.575 268.67 295.605 269.964 292.226 270.238C291.249 270.328 290.284 270.309 289.356 270.205L289.355 270.215ZM293.816 260.021C293.057 259.941 292.255 259.924 291.447 259.987C287.305 260.353 284.023 262.441 284.143 264.648C284.189 265.493 284.752 266.146 285.213 266.544C286.698 267.839 289.322 268.486 292.05 268.255C294.868 268.032 297.394 266.976 298.629 265.489C299.176 264.844 299.411 264.177 299.35 263.512C299.178 261.765 296.797 260.361 293.806 260.019L293.816 260.021Z" fill="#302348"/>
<path d="M294.095 265.267C294.101 265.391 295.101 265.437 295.099 265.549C295.092 267.373 293.82 268.894 292.131 269.026C290.339 269.168 288.771 267.672 288.637 265.687C288.503 263.703 289.824 261.988 291.587 261.84C293.203 261.714 294.639 262.949 295.008 264.675C295.048 264.835 294.081 265.081 294.097 265.257L294.095 265.267Z" fill="#302348"/>
<path d="M333.496 259.293C333.893 262.105 330.401 264.937 325.679 265.606C320.894 266.231 316.744 264.444 316.399 261.622C316.055 258.8 319.556 256.022 324.226 255.414C328.938 254.743 333.091 256.469 333.498 259.284L333.496 259.293Z" fill="white"/>
<path d="M322.179 266.641C320.243 266.428 318.531 265.81 317.295 264.85C316.2 263.999 315.547 262.931 315.405 261.75C314.986 258.332 318.809 255.118 324.096 254.43C329.428 253.668 334 255.743 334.492 259.156C334.74 260.877 333.903 262.617 332.141 264.04C330.523 265.349 328.282 266.258 325.827 266.604C324.57 266.771 323.334 266.779 322.187 266.652L322.179 266.641ZM327.588 256.35C326.58 256.241 325.487 256.247 324.363 256.41C320.302 256.935 317.114 259.267 317.382 261.502C317.466 262.151 317.847 262.747 318.508 263.267C320.044 264.461 322.745 264.979 325.542 264.609C327.64 264.314 329.536 263.551 330.873 262.471C332.065 261.506 332.637 260.427 332.5 259.431C332.271 257.815 330.241 256.645 327.588 256.35Z" fill="#302348"/>
<path d="M327.362 261.516C327.378 261.641 328.372 261.615 328.378 261.739C328.473 263.563 327.319 265.158 325.659 265.398C323.869 265.632 322.213 264.22 321.944 262.25C321.674 260.279 322.886 258.501 324.645 258.271C326.251 258.041 327.777 259.182 328.244 260.876C328.293 261.039 327.346 261.339 327.372 261.518L327.362 261.516Z" fill="#302348"/>
<path d="M201.972 312.817C204.255 313.073 206.78 307.27 207.611 299.855C208.442 292.44 207.265 286.221 204.982 285.965C202.699 285.709 200.174 291.513 199.343 298.928C198.511 306.343 199.689 312.561 201.972 312.817Z" fill="#6748BF"/>
<path d="M201.814 314.141C198.064 313.719 197.212 305.881 198.007 298.779C198.803 291.678 201.373 284.216 205.123 284.638C208.873 285.06 209.725 292.899 208.93 300.001C208.134 307.102 205.564 314.564 201.814 314.141ZM204.818 287.29C203.974 287.326 201.525 291.374 200.661 299.074C199.797 306.774 201.288 311.263 202.109 311.488C202.953 311.452 205.402 307.403 206.266 299.704C207.13 292.004 205.64 287.515 204.818 287.29Z" fill="#302348"/>
<path d="M139.765 285.817C144.193 279.811 146.283 273.838 144.433 272.474C142.584 271.111 137.496 274.875 133.068 280.88C128.641 286.886 126.551 292.86 128.4 294.223C130.25 295.587 135.338 291.823 139.765 285.817Z" fill="#6748BF"/>
<path d="M128.932 295.813C128.444 295.756 127.997 295.595 127.596 295.301C124.556 293.063 127.74 285.846 131.987 280.097C134.208 277.093 136.67 274.515 138.919 272.853C142.328 270.332 144.227 270.68 145.223 271.409C146.22 272.138 147.111 273.856 145.712 277.849C144.788 280.489 143.055 283.601 140.842 286.616C137.152 291.62 132.172 296.184 128.942 295.814L128.932 295.813ZM143.489 273.51C142.461 273.397 138.504 275.748 134.139 281.678C129.541 287.909 128.584 292.551 129.188 293.151C129.926 293.543 134.084 291.253 138.683 285.022C143.281 278.792 144.236 274.159 143.634 273.549C143.596 273.532 143.549 273.512 143.498 273.512L143.489 273.51Z" fill="#302348"/>
<path d="M279.745 311.186C281.85 310.266 281.135 303.978 278.148 297.141C275.16 290.304 271.032 285.507 268.926 286.427C266.821 287.347 267.536 293.635 270.524 300.472C273.511 307.309 277.64 312.106 279.745 311.186Z" fill="#6748BF"/>
<path d="M278.86 312.632C275.628 312.272 271.78 306.722 269.297 301.025C267.799 297.596 266.797 294.184 266.486 291.399C266.01 287.195 267.253 285.719 268.392 285.223C269.531 284.726 271.451 284.814 274.216 288.027C276.046 290.146 277.873 293.203 279.361 296.63C282.225 303.177 283.729 310.921 280.276 312.435C279.829 312.631 279.346 312.698 278.868 312.643L278.86 312.632ZM269.597 287.666C269.538 287.654 269.495 287.666 269.452 287.678C268.738 288.137 268.642 292.859 271.744 299.954C274.845 307.048 278.388 310.192 279.206 309.978C279.918 309.529 280.016 304.796 276.916 297.692C273.968 290.955 270.635 287.781 269.597 287.666Z" fill="#302348"/>
</svg>
