<svg width="214" height="214" viewBox="0 0 214 214" fill="none" xmlns="http://www.w3.org/2000/svg">
<path d="M106.51 213.02C78.2653 213.015 51.1792 201.791 31.209 181.817C11.2388 161.843 0.0200195 134.755 0.0200195 106.51L0.0200195 36.51C0.017395 31.7207 0.958115 26.9778 2.78848 22.552C4.61885 18.1263 7.30301 14.1044 10.6877 10.716C14.0724 7.32756 18.0913 4.63901 22.5151 2.80379C26.9388 0.968567 31.6807 0.022644 36.47 0.0200195L176.55 0.0200195C186.219 0.0200195 195.492 3.85963 202.331 10.6948C209.17 17.5299 213.015 26.801 213.02 36.47L213.02 106.47C213.025 120.46 210.274 134.315 204.924 147.242C199.574 160.169 191.729 171.915 181.838 181.81C171.947 191.704 160.204 199.553 147.279 204.909C134.354 210.264 120.5 213.02 106.51 213.02Z" fill="#B388EB"/>
<path d="M69.4001 162.23H58.5401C57.4183 162.301 56.2925 162.183 55.2101 161.88C54.9712 161.813 54.7604 161.671 54.609 161.475C54.4576 161.278 54.3738 161.038 54.3701 160.79V128.89C54.3701 127.303 59.1501 126.51 68.7101 126.51C74.2034 126.51 77.9901 127.04 80.0701 128.1C81.9157 128.91 83.3748 130.405 84.1401 132.27C84.4878 133.393 84.6532 134.565 84.6301 135.74C84.7648 137.759 84.3097 139.775 83.3201 141.54C83.0186 142.079 82.6105 142.552 82.1205 142.928C81.6305 143.305 81.0689 143.578 80.4701 143.73C81.9755 144.031 83.3356 144.83 84.3301 146C85.3634 147.187 85.8767 149.203 85.8701 152.05C85.8701 155.383 84.8701 157.83 82.8701 159.39C81.1101 160.777 78.4434 161.653 74.8701 162.02C73.2901 162.17 71.4901 162.23 69.4001 162.23ZM69.4001 140.6C71.0901 140.6 71.9301 139.48 71.9301 137.23C72.0001 136.341 71.7637 135.456 71.2601 134.72C71.0882 134.477 70.8627 134.276 70.6008 134.134C70.3389 133.992 70.0478 133.912 69.7501 133.9H68.2101V140.6H69.4001ZM68.1601 154.84H69.4001C71.0901 154.84 71.9301 153.72 71.9301 151.47C72.0001 150.581 71.7637 149.696 71.2601 148.96C71.0899 148.715 70.8647 148.513 70.6025 148.371C70.3403 148.228 70.0483 148.149 69.7501 148.14H68.2101L68.1601 154.84Z" fill="#FFF0FE"/>
<path d="M106.11 162.68C103.73 162.719 101.355 162.461 99.04 161.91C97.0556 161.388 95.2047 160.451 93.61 159.16C90.2767 156.54 88.61 151.54 88.61 144.16C88.5555 141.377 89.0271 138.608 90 136C90.7734 133.871 92.078 131.974 93.79 130.49C96.97 127.823 101.087 126.49 106.14 126.49C108.436 126.454 110.729 126.689 112.97 127.19C114.944 127.668 116.806 128.527 118.45 129.72C121.917 132.227 123.653 137.02 123.66 144.1C123.66 150.447 122.087 155.113 118.94 158.1C115.793 161.087 111.517 162.613 106.11 162.68ZM104.48 154.17C104.688 154.396 104.941 154.577 105.222 154.701C105.504 154.824 105.808 154.888 106.115 154.888C106.422 154.888 106.726 154.824 107.008 154.701C107.289 154.577 107.542 154.396 107.75 154.17C108.314 153.233 108.656 152.179 108.75 151.09C109.059 148.914 109.192 146.717 109.15 144.52C109.195 142.346 109.061 140.172 108.75 138.02C108.656 136.955 108.314 135.928 107.75 135.02C107.546 134.789 107.293 134.607 107.009 134.488C106.725 134.368 106.418 134.314 106.11 134.33C105.804 134.312 105.497 134.365 105.215 134.485C104.932 134.605 104.681 134.788 104.48 135.02C103.92 135.929 103.577 136.956 103.48 138.02C103.178 140.173 103.048 142.346 103.09 144.52C103.05 146.717 103.181 148.913 103.48 151.09C103.578 152.179 103.92 153.231 104.48 154.17Z" fill="#FFF0FE"/>
<path d="M135.24 162.23C132.975 162.248 130.714 162.04 128.49 161.61C126.41 161.2 125.36 160.61 125.36 159.8C125.36 159.34 126.05 157.8 127.42 155.26C128.79 152.72 130.87 149.07 133.65 144.37C128.69 135.037 126.21 130.143 126.21 129.69C126.21 128.963 127.26 128.333 129.36 127.8C131.237 127.302 133.168 127.036 135.11 127.01C136.574 126.955 138.032 127.225 139.38 127.8C140.49 128.33 141.09 128.86 141.19 129.39L143.12 138.17H143.37L144.76 129.49C144.76 129.26 145.19 128.94 145.95 128.55C146.921 128.074 147.945 127.714 149 127.48C150.449 127.145 151.933 126.987 153.42 127.01C154.84 126.974 156.255 127.174 157.61 127.6C158.103 127.725 158.539 128.013 158.846 128.419C159.153 128.824 159.313 129.322 159.3 129.83C158.912 131.539 158.311 133.192 157.51 134.75C156.323 137.457 154.52 141.227 152.1 146.06C157.433 154.727 160.1 159.307 160.1 159.8C160.1 161.42 158.133 162.23 154.2 162.23C148.34 162.23 145.197 161.437 144.77 159.85L142.84 152.95H142.54L140.95 159.85C140.617 161.443 138.713 162.237 135.24 162.23Z" fill="#FFF0FE"/>
<path d="M197.35 107.83V42.67C197.35 35.7744 194.611 29.1612 189.735 24.2853C184.859 19.4093 178.246 16.67 171.35 16.67H41.7C34.8044 16.67 28.1912 19.4093 23.3152 24.2853C18.4393 29.1612 15.7 35.7744 15.7 42.67V107.83C15.7 131.922 25.2706 155.028 42.3064 172.064C59.3422 189.099 82.4478 198.67 106.54 198.67C130.632 198.67 153.738 189.099 170.774 172.064C187.809 155.028 197.38 131.922 197.38 107.83H197.35ZM169 170.35C156.638 182.711 140.889 191.129 123.743 194.539C106.598 197.95 88.8258 196.199 72.6749 189.51C56.5241 182.82 42.7196 171.491 33.0072 156.956C23.2947 142.42 18.1105 125.332 18.11 107.85H194.9C194.93 119.463 192.656 130.966 188.21 141.694C183.764 152.422 177.235 162.162 169 170.35Z" fill="#FFF0FE"/>
<path d="M44.37 69.57C42.3435 69.7813 40.3075 69.8881 38.27 69.89C36.9739 69.9541 35.6747 69.8635 34.4 69.62C33.85 69.43 33.58 69.13 33.58 68.7V47.37H26.68C26.32 47.37 26.01 46.9 25.74 45.98C25.4349 44.6188 25.3039 43.2243 25.35 41.83C25.324 40.1445 25.5224 38.4631 25.94 36.83C26.34 35.36 26.87 34.63 27.53 34.63H54.37C54.86 34.63 55.2 35.09 55.37 36.01C55.5877 37.3317 55.6815 38.6709 55.65 40.01C55.6598 41.6923 55.4752 43.3701 55.1 45.01C54.74 46.57 54.24 47.35 53.61 47.35H47.41V68.7C47.42 69.06 46.41 69.35 44.37 69.57Z" fill="#B388EB"/>
<path d="M69.4701 69.49C67.4812 69.7564 65.4767 69.89 63.4701 69.89C62.1533 69.9663 60.8325 69.8484 59.5501 69.54C59.3057 69.4787 59.0882 69.3389 58.931 69.1419C58.7738 68.945 58.6856 68.7019 58.6801 68.45V37.94C58.6801 37.11 59.6801 36.36 61.5601 35.68C63.572 34.9964 65.6852 34.6583 67.8101 34.68C70.9501 34.68 72.5201 35.4233 72.5201 36.91V47.81H76.9401V37.94C76.9401 37.11 77.9401 36.36 79.84 35.68C81.8628 34.9981 83.9855 34.6601 86.1201 34.68C89.2334 34.68 90.7867 35.4233 90.7801 36.91V68.45C90.7801 68.88 89.7801 69.23 87.7801 69.45C85.7911 69.7157 83.7867 69.8493 81.7801 69.85C80.4732 69.9264 79.1623 69.8085 77.8901 69.5C77.6457 69.4387 77.4281 69.2989 77.271 69.1019C77.1138 68.905 77.0256 68.6619 77.0201 68.41V57.09H72.4701V68.45C72.4701 68.88 71.4701 69.23 69.4701 69.49Z" fill="#B388EB"/>
<path d="M105.51 69.57C103.494 69.7819 101.468 69.8887 99.44 69.89C98.1339 69.9529 96.825 69.8623 95.54 69.62C94.98 69.43 94.7 69.13 94.7 68.7V37.84C94.7 37.1067 95.66 36.3867 97.58 35.68C99.6401 34.9483 101.814 34.5894 104 34.62C106.11 34.62 107.5 35.06 108.16 35.96C108.378 36.2486 108.501 36.5983 108.51 36.96V68.7C108.53 69.06 107.53 69.35 105.51 69.57Z" fill="#B388EB"/>
<path d="M123.3 69.49C121.284 69.757 119.253 69.8906 117.22 69.89C115.92 69.9679 114.615 69.8499 113.35 69.54C113.111 69.4732 112.9 69.331 112.749 69.1345C112.598 68.9381 112.514 68.698 112.51 68.45V38C112.51 37.1667 113.46 36.4067 115.36 35.72C117.444 35.0071 119.638 34.6685 121.84 34.72C122.485 34.706 123.13 34.7394 123.77 34.82C124.33 34.9068 124.853 35.1542 125.276 35.5322C125.698 35.9103 126.002 36.4028 126.15 36.95L130.91 49.75H131.11V38C131.11 37.17 132.06 36.41 133.94 35.72C136.013 35.006 138.198 34.6674 140.39 34.72C142.47 34.72 143.8 35.11 144.39 35.91C144.741 36.3462 144.947 36.8811 144.98 37.44V68.45C144.98 68.88 143.98 69.23 141.98 69.45C139.758 69.7303 137.52 69.864 135.28 69.85C132.85 69.85 131.52 69.53 131.28 68.91L126.6 56.74H126.35V68.45C126.35 68.88 125.33 69.23 123.3 69.49Z" fill="#B388EB"/>
<path d="M159.71 69.39C157.694 69.6573 155.663 69.7909 153.63 69.79C152.33 69.867 151.025 69.749 149.76 69.44C149.521 69.3732 149.31 69.231 149.159 69.0345C149.008 68.8381 148.924 68.598 148.92 68.35V37.94C148.92 37.08 149.86 36.32 151.72 35.66C153.808 34.9622 155.999 34.6241 158.2 34.66C160.2 34.66 161.52 35.05 162.12 35.85C162.495 36.2761 162.72 36.8137 162.76 37.38V45.57H163.16C163.16 45.4 163.66 44.03 164.65 41.45C166.53 36.59 167.91 34.16 168.77 34.16C171.108 34.3024 173.413 34.7876 175.61 35.6C176.955 36.0143 178.203 36.6944 179.28 37.6C179.739 37.936 180.116 38.3714 180.382 38.8736C180.649 39.3758 180.799 39.9318 180.82 40.5C180.82 41.1667 180.153 42.4467 178.82 44.34C177.48 46.25 175.46 48.78 172.74 51.96C173.37 52.62 174.17 53.46 175.13 54.49C176.09 55.52 177.37 57.04 178.97 59.08C180.57 61.12 181.38 62.56 181.38 63.42C181.38 64.28 180.6 65.28 179.05 66.42C177.506 67.5512 175.826 68.4851 174.05 69.2C172.815 69.7797 171.489 70.1417 170.13 70.27C169.57 70.27 168.8 69.41 167.83 67.71C166.489 65.233 165.303 62.6747 164.28 60.05L162.74 61.88V68.33C162.76 68.78 161.75 69.13 159.71 69.39Z" fill="#B388EB"/>
<path d="M35.5201 93C34.4126 93.0199 33.307 92.8989 32.2301 92.64C31.3046 92.3999 30.4417 91.9633 29.7001 91.36C28.1401 90.14 27.3601 87.8067 27.3601 84.36C27.3303 83.0675 27.5475 81.7811 28.0001 80.57C28.3593 79.5754 28.9689 78.6903 29.7701 78C31.4038 76.7156 33.4438 76.0593 35.5201 76.15C36.5894 76.1338 37.6568 76.2445 38.7001 76.48C39.6187 76.6985 40.4853 77.0961 41.2501 77.65C42.8701 78.83 43.6801 81.06 43.6801 84.36C43.6801 87.3067 42.9467 89.4867 41.4801 90.9C39.8503 92.3623 37.7065 93.1176 35.5201 93ZM34.76 89C34.8539 89.1098 34.9705 89.1979 35.1017 89.2584C35.2329 89.3188 35.3756 89.3501 35.5201 89.3501C35.6645 89.3501 35.8072 89.3188 35.9384 89.2584C36.0696 89.1979 36.1862 89.1098 36.2801 89C36.5412 88.5606 36.7017 88.0688 36.7501 87.56C36.8882 86.5461 36.9484 85.5231 36.9301 84.5C36.9478 83.4969 36.8877 82.4938 36.7501 81.5C36.7027 81.0097 36.5418 80.5373 36.2801 80.12C36.1862 80.0102 36.0696 79.9221 35.9384 79.8617C35.8072 79.8012 35.6645 79.7699 35.5201 79.7699C35.3756 79.7699 35.2329 79.8012 35.1017 79.8617C34.9705 79.9221 34.8539 80.0102 34.76 80.12C34.4984 80.5365 34.3406 81.0098 34.3001 81.5C34.1532 82.493 34.0896 83.4965 34.1101 84.5C34.0889 85.5235 34.1525 86.547 34.3001 87.56C34.3417 88.0688 34.499 88.5613 34.76 89Z" fill="#B388EB"/>
<path d="M58.2 91.32C56.6265 92.5344 54.6633 93.1319 52.68 93C50.6875 93.1327 48.7137 92.5434 47.12 91.34C46.4424 90.7054 45.9162 89.9265 45.5804 89.061C45.2446 88.1955 45.1078 87.2656 45.18 86.34V77.86C45.18 77.48 45.62 77.13 46.49 76.86C47.4568 76.538 48.4712 76.3824 49.49 76.4C49.8105 76.3556 50.1367 76.3799 50.4471 76.4713C50.7574 76.5626 51.0448 76.719 51.29 76.93C51.4603 77.1343 51.5649 77.3853 51.59 77.65V84.53C51.5453 85.6871 51.6122 86.8458 51.79 87.99C51.9234 88.55 52.2034 88.83 52.63 88.83C53.06 88.83 53.33 88.56 53.45 88.01C53.5983 86.8496 53.6551 85.6793 53.62 84.51V77.86C53.62 77.48 54.06 77.13 54.93 76.86C55.8965 76.5368 56.9111 76.3812 57.93 76.4C58.93 76.4 59.52 76.58 59.78 76.93C59.9415 77.1376 60.0388 77.3879 60.06 77.65V86.38C60.1298 87.2893 59.9995 88.2029 59.6781 89.0564C59.3568 89.9099 58.8522 90.6825 58.2 91.32Z" fill="#B388EB"/>
<path d="M70.36 92.64C69.4167 92.7399 68.4687 92.79 67.52 92.79C66.9137 92.8223 66.3056 92.7786 65.71 92.66C65.46 92.58 65.33 92.44 65.33 92.24V82.3H62.12C61.95 82.3 61.81 82.08 61.68 81.65C61.5388 81.0169 61.4783 80.3684 61.5 79.72C61.4914 78.9417 61.5822 78.1654 61.77 77.41C61.96 76.73 62.21 76.41 62.51 76.41H75C75.23 76.41 75.39 76.63 75.47 77.06C75.5725 77.6778 75.6161 78.304 75.6 78.93C75.6035 79.7075 75.5162 80.4828 75.34 81.24C75.17 81.97 74.94 82.33 74.65 82.33H71.78V92.27C71.78 92.41 71.31 92.54 70.36 92.64Z" fill="#B388EB"/>
<path d="M88.7701 91.82C88.1832 92.2152 87.5292 92.4999 86.84 92.66C85.7962 92.9128 84.7237 93.0271 83.6501 93C82.4064 93.0034 81.1648 92.8963 79.9401 92.68C79.0742 92.563 78.2272 92.3344 77.4201 92C76.9101 91.74 76.6601 91.48 76.6601 91.24C76.6515 90.3156 76.7658 89.3942 77.0001 88.5C77.2401 87.57 77.5401 87.11 77.8801 87.11C77.9401 87.11 78.5801 87.31 79.7901 87.73C80.6701 88.0745 81.5973 88.2835 82.5401 88.35C82.953 88.3901 83.3693 88.3248 83.7501 88.16C83.8391 88.0951 83.9104 88.0089 83.9576 87.9094C84.0047 87.8098 84.0262 87.7 84.0201 87.59C84.0201 87.35 83.8501 87.13 83.5101 86.93C83.1068 86.7137 82.6809 86.5426 82.2401 86.42C81.6728 86.2583 81.1207 86.0475 80.59 85.79C80.0389 85.5178 79.5075 85.207 79.0001 84.86C78.4633 84.4933 78.0268 83.9983 77.7301 83.42C77.3816 82.7614 77.2061 82.025 77.2201 81.28C77.2201 77.86 79.26 76.15 83.34 76.15C84.6792 76.1328 86.0174 76.2298 87.34 76.44C88.1504 76.5434 88.9418 76.7623 89.6901 77.09C90.1401 77.33 90.3701 77.56 90.3701 77.79C90.35 78.6811 90.1599 79.5602 89.8101 80.38C89.4301 81.31 89.0601 81.77 88.7101 81.77C88.5032 81.7215 88.3021 81.6511 88.1101 81.56C87.3202 81.1693 86.4598 80.9414 85.5801 80.89C85.116 80.8581 84.6502 80.9193 84.2101 81.07C84.1025 81.1206 84.0121 81.2015 83.95 81.3028C83.8878 81.404 83.8565 81.5212 83.8601 81.64C83.8601 81.89 84.0201 82.1 84.3601 82.26C84.764 82.4493 85.1862 82.5967 85.6201 82.7C86.1816 82.8567 86.7299 83.0574 87.2601 83.3C87.8445 83.5788 88.4004 83.9137 88.9201 84.3C89.4615 84.7033 89.8973 85.2316 90.1901 85.84C90.5424 86.5581 90.7173 87.3503 90.7001 88.15C90.7083 89.0419 90.4583 89.9171 89.9801 90.67C89.6532 91.1266 89.2426 91.5168 88.7701 91.82Z" fill="#B388EB"/>
<path d="M97.1601 92.64C96.22 92.7398 95.2754 92.7899 94.3301 92.79C93.7203 92.822 93.109 92.7783 92.5101 92.66C92.2501 92.58 92.1201 92.44 92.1201 92.24V77.86C92.1201 77.52 92.5601 77.19 93.4601 76.86C94.4223 76.516 95.4383 76.3467 96.4601 76.36C96.8108 76.3123 97.1678 76.3451 97.5039 76.456C97.8401 76.5669 98.1465 76.753 98.4001 77C98.5042 77.1351 98.5637 77.2994 98.5701 77.47V92.24C98.5701 92.41 98.1001 92.54 97.1601 92.64Z" fill="#B388EB"/>
<path d="M107.79 92.79H102.33C101.818 92.8215 101.304 92.7674 100.81 92.63C100.696 92.5945 100.597 92.5243 100.525 92.4293C100.453 92.3342 100.413 92.2191 100.41 92.1V77.52C100.4 77.3409 100.443 77.1627 100.534 77.0079C100.624 76.8531 100.759 76.7286 100.92 76.65C101.48 76.4319 102.081 76.3397 102.68 76.38H107.88C110.84 76.38 112.88 76.9634 114 78.13C115.13 79.29 115.69 81.41 115.69 84.47C115.69 87.53 115.1 89.69 113.93 90.93C112.76 92.17 110.71 92.79 107.79 92.79ZM107.6 79.79C107.35 79.7734 107.099 79.8039 106.86 79.88V89.22L107.74 89.31C108.2 89.31 108.55 88.94 108.79 88.2C109.086 86.9427 109.207 85.6505 109.15 84.36C109.222 83.1314 109.098 81.8991 108.78 80.71C108.703 80.4565 108.547 80.2343 108.335 80.076C108.122 79.9176 107.865 79.8314 107.6 79.83V79.79Z" fill="#B388EB"/>
<path d="M129 92.79H119.2C118.685 92.822 118.168 92.7679 117.67 92.63C117.559 92.5979 117.461 92.5311 117.391 92.4393C117.321 92.3475 117.282 92.2356 117.28 92.12V77.49C117.271 77.3098 117.318 77.1312 117.415 76.9789C117.511 76.8267 117.653 76.7082 117.82 76.64C118.463 76.4205 119.143 76.3321 119.82 76.38H129.11C129.44 76.38 129.6 76.92 129.6 77.99C129.624 78.812 129.553 79.634 129.39 80.44C129.25 81 129.07 81.28 128.84 81.28C127.84 81.28 126.15 81.18 123.78 80.98V82.53C126.06 82.44 127.54 82.39 128.24 82.39C128.65 82.39 128.86 82.88 128.86 83.85C128.887 84.5911 128.806 85.3322 128.62 86.05C128.46 86.56 128.24 86.81 127.96 86.81L123.78 86.71V88.19C126.46 87.99 128.31 87.89 129.32 87.89C129.65 87.89 129.81 88.43 129.81 89.51C129.834 90.332 129.764 91.1541 129.6 91.96C129.44 92.51 129.26 92.79 129 92.79Z" fill="#B388EB"/>
<path d="M145 92.64C144.053 92.7399 143.102 92.7899 142.15 92.79C141.547 92.8225 140.942 92.7788 140.35 92.66C140.1 92.58 139.97 92.44 139.97 92.24V82.3H136.76C136.59 82.3 136.44 82.08 136.32 81.65C136.169 81.0183 136.106 80.369 136.13 79.72C136.125 78.9412 136.219 78.165 136.41 77.41C136.59 76.73 136.84 76.41 137.15 76.41H149.65C149.88 76.41 150.04 76.63 150.13 77.06C150.223 77.6788 150.263 78.3044 150.25 78.93C150.257 79.7071 150.173 80.4824 150 81.24C149.83 81.97 149.6 82.33 149.31 82.33H146.42V92.27C146.43 92.41 146 92.54 145 92.64Z" fill="#B388EB"/>
<path d="M156.7 92.61C155.765 92.7304 154.823 92.7905 153.88 92.79C153.265 92.8278 152.649 92.7739 152.05 92.63C151.937 92.5997 151.837 92.5336 151.765 92.4417C151.693 92.3497 151.653 92.2368 151.65 92.12V77.91C151.65 77.52 152.1 77.17 152.99 76.91C153.925 76.5824 154.91 76.42 155.9 76.43C157.37 76.43 158.1 76.78 158.1 77.43V82.52H160.15V77.92C160.15 77.53 160.6 77.18 161.51 76.92C162.449 76.5933 163.436 76.4309 164.43 76.44C165.88 76.44 166.6 76.79 166.6 77.44V92.14C166.6 92.34 166.13 92.5 165.19 92.63C164.255 92.7497 163.313 92.8098 162.37 92.81C161.762 92.8476 161.152 92.7937 160.56 92.65C160.446 92.6201 160.345 92.5544 160.271 92.4626C160.197 92.3708 160.155 92.2577 160.15 92.14V86.83H158.1V92.12C158.1 92.32 157.63 92.48 156.7 92.61Z" fill="#B388EB"/>
<path d="M180.17 92.79H170.37C169.855 92.8213 169.338 92.7672 168.84 92.63C168.729 92.5979 168.631 92.5311 168.561 92.4393C168.491 92.3475 168.452 92.2356 168.45 92.12V77.49C168.441 77.3098 168.488 77.1312 168.585 76.979C168.681 76.8267 168.823 76.7082 168.99 76.64C169.633 76.4229 170.313 76.3346 170.99 76.38H180.28C180.6 76.38 180.76 76.92 180.76 77.99C180.784 78.812 180.713 79.634 180.55 80.44C180.42 81 180.23 81.28 180 81.28C179 81.28 177.31 81.18 174.94 80.98V82.53C177.22 82.44 178.71 82.39 179.4 82.39C179.81 82.39 180.02 82.88 180.02 83.85C180.047 84.5911 179.966 85.3323 179.78 86.05C179.62 86.56 179.4 86.81 179.12 86.81L174.94 86.71V88.19C177.607 87.99 179.457 87.89 180.49 87.89C180.81 87.89 180.97 88.43 180.97 89.51C180.994 90.332 180.924 91.1541 180.76 91.96C180.58 92.51 180.4 92.79 180.17 92.79Z" fill="#B388EB"/>
<path d="M43.44 118.73C42.5569 118.73 41.7099 119.081 41.0854 119.705C40.4609 120.33 40.11 121.177 40.11 122.06C40.11 121.177 39.7592 120.33 39.1347 119.705C38.5102 119.081 37.6632 118.73 36.78 118.73C37.6632 118.73 38.5102 118.379 39.1347 117.755C39.7592 117.13 40.11 116.283 40.11 115.4C40.11 116.283 40.4609 117.13 41.0854 117.755C41.7099 118.379 42.5569 118.73 43.44 118.73Z" fill="#FFF0FE"/>
<path d="M40.11 137.55C39.2268 137.55 38.3798 137.901 37.7553 138.525C37.1308 139.15 36.78 139.997 36.78 140.88C36.78 139.997 36.4292 139.15 35.8047 138.525C35.1802 137.901 34.3332 137.55 33.45 137.55C34.3341 137.547 35.1811 137.194 35.8053 136.568C36.4295 135.942 36.78 135.094 36.78 134.21C36.78 135.094 37.1305 135.942 37.7547 136.568C38.3789 137.194 39.2259 137.547 40.11 137.55Z" fill="#FFF0FE"/>
<path d="M48 150.24C47.5627 150.24 47.1297 150.326 46.7257 150.494C46.3217 150.661 45.9546 150.906 45.6454 151.215C45.3361 151.525 45.0909 151.892 44.9235 152.296C44.7562 152.7 44.67 153.133 44.67 153.57C44.67 153.133 44.5839 152.7 44.4165 152.296C44.2492 151.892 44.0039 151.525 43.6947 151.215C43.3855 150.906 43.0184 150.661 42.6144 150.494C42.2103 150.326 41.7773 150.24 41.34 150.24C42.2232 150.24 43.0702 149.889 43.6947 149.265C44.3192 148.64 44.67 147.793 44.67 146.91C44.67 147.793 45.0209 148.64 45.6454 149.265C46.2699 149.889 47.1169 150.24 48 150.24Z" fill="#FFF0FE"/>
<path d="M58.61 169.1C57.7268 169.1 56.8798 169.451 56.2553 170.075C55.6308 170.7 55.28 171.547 55.28 172.43C55.2774 171.546 54.9243 170.699 54.2982 170.075C53.6721 169.451 52.8241 169.1 51.94 169.1C52.8241 169.1 53.6721 168.75 54.2982 168.125C54.9243 167.501 55.2774 166.654 55.28 165.77C55.28 166.653 55.6308 167.5 56.2553 168.125C56.8798 168.749 57.7268 169.1 58.61 169.1Z" fill="#FFF0FE"/>
<path d="M77.54 169.1C76.6568 169.1 75.8098 169.451 75.1853 170.075C74.5608 170.7 74.21 171.547 74.21 172.43C74.21 171.547 73.8592 170.7 73.2347 170.075C72.6102 169.451 71.7632 169.1 70.88 169.1C71.7632 169.1 72.6102 168.749 73.2347 168.125C73.8592 167.5 74.21 166.653 74.21 165.77C74.21 166.653 74.5608 167.5 75.1853 168.125C75.8098 168.749 76.6568 169.1 77.54 169.1Z" fill="#FFF0FE"/>
<path d="M86.0001 180C85.1177 180.003 84.2722 180.354 83.6483 180.978C83.0244 181.602 82.6727 182.448 82.6701 183.33C82.6701 182.452 82.3234 181.61 81.7054 180.986C81.0873 180.362 80.248 180.008 79.3701 180C80.2532 180 81.1002 179.649 81.7247 179.025C82.3492 178.4 82.7001 177.553 82.7001 176.67C82.7026 177.547 83.0502 178.388 83.6676 179.011C84.2851 179.634 85.1229 179.99 86.0001 180Z" fill="#FFF0FE"/>
<path d="M102.28 169.1C101.406 169.113 100.571 169.47 99.9576 170.093C99.3439 170.716 98.9999 171.555 99 172.43C99 171.547 98.6492 170.7 98.0247 170.075C97.4002 169.451 96.5532 169.1 95.67 169.1C96.5532 169.1 97.4002 168.749 98.0247 168.125C98.6492 167.5 99 166.653 99 165.77C98.9999 166.645 99.3439 167.484 99.9576 168.107C100.571 168.73 101.406 169.087 102.28 169.1Z" fill="#FFF0FE"/>
<path d="M114.34 180C113.457 180 112.61 180.351 111.985 180.975C111.361 181.6 111.01 182.447 111.01 183.33C111.007 182.446 110.654 181.599 110.028 180.975C109.402 180.351 108.554 180 107.67 180C108.547 179.997 109.388 179.65 110.011 179.032C110.634 178.415 110.99 177.577 111 176.7C111.008 177.58 111.364 178.421 111.989 179.039C112.615 179.657 113.46 180.003 114.34 180Z" fill="#FFF0FE"/>
<path d="M130.16 167.89C129.276 167.89 128.428 168.241 127.802 168.865C127.176 169.489 126.823 170.336 126.82 171.22C126.82 170.783 126.734 170.35 126.567 169.946C126.399 169.542 126.154 169.175 125.845 168.865C125.535 168.556 125.168 168.311 124.764 168.143C124.36 167.976 123.927 167.89 123.49 167.89C124.373 167.89 125.22 167.539 125.845 166.915C126.469 166.29 126.82 165.443 126.82 164.56C126.823 165.444 127.176 166.291 127.802 166.915C128.428 167.539 129.276 167.89 130.16 167.89Z" fill="#FFF0FE"/>
<path d="M141.12 180C140.237 180 139.39 180.351 138.765 180.975C138.141 181.6 137.79 182.447 137.79 183.33C137.79 182.447 137.439 181.6 136.815 180.975C136.19 180.351 135.343 180 134.46 180C135.343 180 136.19 179.649 136.815 179.025C137.439 178.4 137.79 177.553 137.79 176.67C137.79 177.553 138.141 178.4 138.765 179.025C139.39 179.649 140.237 180 141.12 180Z" fill="#FFF0FE"/>
<path d="M161.9 169.1C161.017 169.1 160.17 169.451 159.545 170.075C158.921 170.7 158.57 171.547 158.57 172.43C158.57 171.547 158.219 170.7 157.595 170.075C156.97 169.451 156.123 169.1 155.24 169.1C156.123 169.1 156.97 168.749 157.595 168.125C158.219 167.5 158.57 166.653 158.57 165.77C158.57 166.653 158.921 167.5 159.545 168.125C160.17 168.749 161.017 169.1 161.9 169.1Z" fill="#FFF0FE"/>
<path d="M170.36 141.35C169.923 141.35 169.49 141.436 169.086 141.603C168.682 141.771 168.315 142.016 168.005 142.325C167.696 142.635 167.451 143.002 167.283 143.406C167.116 143.81 167.03 144.243 167.03 144.68C167.03 144.243 166.944 143.81 166.777 143.406C166.609 143.002 166.364 142.635 166.055 142.325C165.745 142.016 165.378 141.771 164.974 141.603C164.57 141.436 164.137 141.35 163.7 141.35C164.581 141.342 165.424 140.985 166.042 140.357C166.661 139.729 167.005 138.881 167 138C166.997 138.442 167.082 138.879 167.251 139.287C167.419 139.696 167.666 140.067 167.979 140.378C168.291 140.69 168.663 140.937 169.072 141.103C169.481 141.27 169.919 141.354 170.36 141.35Z" fill="#FFF0FE"/>
<path d="M178.29 153.57C177.414 153.581 176.577 153.936 175.961 154.559C175.345 155.183 175 156.024 175 156.9C175 156.463 174.914 156.03 174.747 155.626C174.579 155.222 174.334 154.855 174.025 154.545C173.715 154.236 173.348 153.991 172.944 153.823C172.54 153.656 172.107 153.57 171.67 153.57C172.107 153.57 172.54 153.484 172.944 153.316C173.348 153.149 173.715 152.904 174.025 152.595C174.334 152.285 174.579 151.918 174.747 151.514C174.914 151.11 175 150.677 175 150.24C175 151.116 175.345 151.957 175.961 152.581C176.577 153.204 177.414 153.559 178.29 153.57Z" fill="#FFF0FE"/>
<path d="M181.62 119.53C180.736 119.533 179.889 119.886 179.265 120.512C178.641 121.138 178.29 121.986 178.29 122.87C178.29 121.986 177.94 121.138 177.315 120.512C176.691 119.886 175.844 119.533 174.96 119.53C175.843 119.53 176.69 119.179 177.315 118.555C177.939 117.93 178.29 117.083 178.29 116.2C178.29 117.083 178.641 117.93 179.265 118.555C179.89 119.179 180.737 119.53 181.62 119.53Z" fill="#FFF0FE"/>
<path d="M161.9 112.39C161.016 112.393 160.169 112.746 159.545 113.372C158.921 113.998 158.57 114.846 158.57 115.73C158.57 114.846 158.22 113.998 157.595 113.372C156.971 112.746 156.124 112.393 155.24 112.39C156.123 112.39 156.97 112.039 157.595 111.415C158.219 110.79 158.57 109.943 158.57 109.06C158.57 109.943 158.921 110.79 159.545 111.415C160.17 112.039 161.017 112.39 161.9 112.39Z" fill="#FFF0FE"/>
<path d="M150.53 121.12C149.647 121.12 148.8 121.471 148.175 122.095C147.551 122.72 147.2 123.567 147.2 124.45C147.2 124.013 147.114 123.58 146.947 123.176C146.779 122.772 146.534 122.405 146.225 122.095C145.915 121.786 145.548 121.541 145.144 121.374C144.74 121.206 144.307 121.12 143.87 121.12C144.307 121.12 144.74 121.034 145.144 120.867C145.548 120.699 145.915 120.454 146.225 120.145C146.534 119.835 146.779 119.468 146.947 119.064C147.114 118.66 147.2 118.227 147.2 117.79C147.2 118.673 147.551 119.52 148.175 120.145C148.8 120.769 149.647 121.12 150.53 121.12Z" fill="#FFF0FE"/>
<path d="M185 134.21C184.116 134.213 183.269 134.566 182.645 135.192C182.021 135.818 181.67 136.666 181.67 137.55C181.67 136.666 181.32 135.818 180.695 135.192C180.071 134.566 179.224 134.213 178.34 134.21C178.777 134.21 179.21 134.124 179.614 133.957C180.018 133.789 180.385 133.544 180.695 133.235C181.004 132.925 181.249 132.558 181.417 132.154C181.584 131.75 181.67 131.317 181.67 130.88C181.67 131.317 181.756 131.75 181.924 132.154C182.091 132.558 182.336 132.925 182.645 133.235C182.955 133.544 183.322 133.789 183.726 133.957C184.13 134.124 184.563 134.21 185 134.21Z" fill="#FFF0FE"/>
<path d="M121 115.73C120.117 115.73 119.27 116.081 118.645 116.705C118.021 117.33 117.67 118.177 117.67 119.06C117.67 118.177 117.319 117.33 116.695 116.705C116.07 116.081 115.223 115.73 114.34 115.73C115.224 115.727 116.071 115.374 116.695 114.748C117.32 114.122 117.67 113.274 117.67 112.39C117.67 113.274 118.021 114.122 118.645 114.748C119.269 115.374 120.116 115.727 121 115.73Z" fill="#FFF0FE"/>
<path d="M98.32 121.12C97.4394 121.125 96.5965 121.478 95.9747 122.102C95.353 122.725 95.0027 123.569 95 124.45C95 123.567 94.6492 122.72 94.0247 122.095C93.4002 121.471 92.5532 121.12 91.67 121.12C92.5532 121.12 93.4002 120.769 94.0247 120.145C94.6492 119.52 95 118.673 95 117.79C95.0027 118.671 95.353 119.515 95.9747 120.138C96.5965 120.762 97.4394 121.115 98.32 121.12Z" fill="#FFF0FE"/>
<path d="M73.57 115.73C72.6869 115.73 71.8399 116.081 71.2154 116.705C70.5909 117.33 70.24 118.177 70.24 119.06C70.2374 118.176 69.8843 117.329 69.2582 116.705C68.6321 116.081 67.7841 115.73 66.9 115.73C67.785 115.727 68.633 115.375 69.2588 114.749C69.8846 114.123 70.2374 113.275 70.24 112.39C70.24 113.274 70.5905 114.122 71.2147 114.748C71.839 115.374 72.6859 115.727 73.57 115.73Z" fill="#FFF0FE"/>
<path d="M63.07 122.06C62.1869 122.06 61.3399 122.411 60.7154 123.035C60.0909 123.66 59.74 124.507 59.74 125.39C59.74 124.507 59.3892 123.66 58.7647 123.035C58.1402 122.411 57.2932 122.06 56.41 122.06C57.2932 122.06 58.1402 121.709 58.7647 121.085C59.3892 120.46 59.74 119.613 59.74 118.73C59.74 119.613 60.0909 120.46 60.7154 121.085C61.3399 121.709 62.1869 122.06 63.07 122.06Z" fill="#FFF0FE"/>
<path d="M33.45 126.2C32.5669 126.2 31.7199 126.551 31.0954 127.175C30.4709 127.8 30.12 128.647 30.12 129.53C30.12 128.647 29.7692 127.8 29.1447 127.175C28.5202 126.551 27.6732 126.2 26.79 126.2C27.6732 126.2 28.5202 125.849 29.1447 125.225C29.7692 124.6 30.12 123.753 30.12 122.87C30.12 123.753 30.4709 124.6 31.0954 125.225C31.7199 125.849 32.5669 126.2 33.45 126.2Z" fill="#FFF0FE"/>
</svg>
