<svg width="240" height="240" viewBox="0 0 240 240" fill="none" xmlns="http://www.w3.org/2000/svg">
<path d="M205.042 164.5C211.75 164.5 217.208 164.125 222.542 164.666C225.375 164.958 229.417 166 230.458 168C231.542 170.083 230.458 174.25 228.917 176.541C224.417 183.25 219.333 189.666 214.125 195.833C213 197.166 210.292 198.458 208.167 197.625C205.958 197.208 207.125 192.625 208.083 191C211.792 184.833 216.125 179 220.583 172.541C215.875 172.541 211.958 172.625 208 172.541C197.417 172.291 193.708 167.208 197.458 157.375C202.75 143.458 208.417 129.666 213.917 115.791C214.583 114.125 215.167 112.458 215.75 110.75C216.958 108.208 216.167 108.041 214.583 109.75C211.583 113.083 208.542 116.375 205.542 119.708C200.208 125.625 194.917 131.583 189.542 137.458C188.333 138.791 186.75 139.916 185.5 141.083C183.292 143.125 180.125 142.833 178.167 141.958C176.5 141.208 174.75 139.708 175 135.916C175.625 128 176.833 120.125 178.083 112.291C180.875 94.6247 183.792 76.9997 185.958 58.958C182.542 64.2913 179.042 69.6247 175.75 74.9997C168.458 86.8747 161.417 98.8747 153.958 110.625C151.417 114.666 148.958 120.083 142.708 118.583C136.833 117.166 136.792 111.5 136.083 106.916C133.917 92.4997 132.083 78.0413 130.083 63.583C129.875 62.1247 129.458 60.708 128.833 57.7913C124.292 65.958 120 72.833 116.583 80.083C109.375 95.333 102.583 110.833 95.6251 126.208C91.0001 136.458 85.5834 137.25 78.6667 128.208C70 116.916 61.7084 105.291 53.2084 93.833C51.6251 91.708 49.8334 89.7913 47.1251 86.583C46.9584 89.583 46.7084 91.2497 46.8334 92.8747C48.2084 111.541 49.625 130.208 51.0417 148.916C51.4167 153.833 52.9167 159.291 48.4167 162.916C43.7084 166.708 38.9584 163.416 34.4167 161.541C29.7084 159.583 25.0834 157.458 19.5417 156.125C21.7917 160 24.0417 163.833 26.2917 167.708C28.125 170.875 30.2084 173.916 31.7084 177.208C32.25 178.375 31.875 181.125 31.125 181.458C29.7917 182.083 28.5 182.791 26.25 181.166C25.2917 180.5 24.375 179.333 23.7084 178.208C19 170.583 14.0834 163.083 9.91671 155.166C8.70838 152.833 8.58338 148.625 9.91671 146.666C11.0417 145.041 15.4167 144.5 17.8334 145.208C24 146.958 29.9167 149.708 35.9167 152.041C37.875 152.791 39.8334 153.625 42.5417 154.708C42.3334 150.208 42.125 146.5 41.9584 142.75C41 123.208 40.0417 103.666 39.125 84.1247C39.0834 82.7913 39.1667 81.458 39.375 80.1663C40.1667 75.7913 43.9584 73.458 47.7917 75.6663C51.2917 77.6663 54.7084 80.3747 57.2084 83.5413C66.4167 95.2497 75.25 107.291 84.2084 119.208C85.1667 120.5 86.1667 121.708 87.5417 123.458C92.6667 112.375 97.2501 101.75 102.417 91.458C108.583 79.1663 115.125 67.083 121.708 54.9997C123.708 51.333 125.417 46.458 130.833 47.1247C136.25 47.7913 137.667 52.7497 138.458 57.083C140.958 70.7497 142.958 84.5413 145.167 98.2497C145.5 100.458 145.833 102.708 147.25 105.291C152.375 97.458 157.5 89.6247 162.583 81.7497C170.083 70.208 177.5 58.6247 185.042 47.1247C186.833 44.3747 188.75 41.0413 192.833 42.2913C197 43.583 197.417 47.3747 197 50.9163C195.292 65.3747 193.542 79.8747 191.458 94.2913C189.75 105.916 187.542 117.458 186.5 129.916C190.833 125.333 194.958 120.583 199.5 116.208C205.208 110.666 211.083 105.25 217.25 100.25C219.125 98.708 223.333 97.4163 224.542 98.3747C226.292 99.7913 227.458 103.708 226.833 106C224.5 114.416 221.5 122.708 218.375 130.875C214.417 141.666 210 152.208 205.042 164.5Z" fill="black"/>
</svg>
